<svg width="1035" height="516" xmlns="http://www.w3.org/2000/svg"><defs><linearGradient x1="50%" y1="73.395%" x2="50%" y2="13%" id="a"><stop stop-color="#17232C" stop-opacity="0" offset="0%"/><stop stop-color="#283844" stop-opacity=".109" offset="30.899%"/><stop stop-color="#506B80" offset="100%"/></linearGradient><linearGradient x1="0%" y1="50%" y2="50%" id="b"><stop stop-color="#FF690F" offset="0%"/><stop stop-color="#FF8812" stop-opacity=".7" offset="100%"/></linearGradient><linearGradient x1="162804%" y1="48444%" x2="173652%" y2="48444%" id="c"><stop stop-color="#FF690F" offset="0%"/><stop stop-color="#FF8812" stop-opacity=".7" offset="100%"/></linearGradient><linearGradient x1="150054%" y1="41094%" x2="160903%" y2="41094%" id="d"><stop stop-color="#FF690F" offset="0%"/><stop stop-color="#FF8812" stop-opacity=".7" offset="100%"/></linearGradient><linearGradient x1="37727.088%" y1="51155%" x2="39602.811%" y2="50164%" id="e"><stop stop-color="#FF690F" offset="0%"/><stop stop-color="#FF8812" stop-opacity=".7" offset="100%"/></linearGradient><linearGradient x1="62.18%" y1="106.713%" x2="37.582%" y2="-7.501%" id="f"><stop stop-color="#E8381B" stop-opacity="0" offset="33%"/><stop stop-color="#E8381B" offset="95%"/></linearGradient><linearGradient x1="15.744%" y1="71.265%" x2="84.263%" y2="28.735%" id="g"><stop stop-color="#FFF" stop-opacity="0" offset="2%"/><stop stop-color="#FFF" offset="54%"/><stop stop-color="#EEF6FE" stop-opacity="0" offset="100%"/></linearGradient><linearGradient x1="49.069%" y1="52.638%" x2="50.957%" y2="47.362%" id="h"><stop stop-color="#92AABB" stop-opacity="0" offset="0%"/><stop stop-color="#92AABB" offset="80%"/></linearGradient><linearGradient x1="41.075%" y1="90.756%" x2="56.589%" y2="9.244%" id="i"><stop stop-color="#F95300" stop-opacity=".58" offset="0%"/><stop stop-color="#FAA743" stop-opacity="0" offset="100%"/></linearGradient><linearGradient x1="53519.073%" y1="85336%" x2="50319.614%" y2="77268%" id="j"><stop stop-color="#E8381B" stop-opacity="0" offset="33%"/><stop stop-color="#E8381B" offset="95%"/></linearGradient><linearGradient x1="96.387%" y1="99.32%" x2="28.643%" y2="-33.372%" id="k"><stop stop-color="#E8381B" stop-opacity="0" offset="19%"/><stop stop-color="#E8381B" stop-opacity=".15" offset="25%"/><stop stop-color="#E8381B" stop-opacity=".37" offset="35%"/><stop stop-color="#E8381B" stop-opacity=".57" offset="45%"/><stop stop-color="#E8381B" stop-opacity=".72" offset="55%"/><stop stop-color="#E8381B" stop-opacity=".84" offset="65%"/><stop stop-color="#E8381B" stop-opacity=".93" offset="75%"/><stop stop-color="#E8381B" stop-opacity=".98" offset="85%"/><stop stop-color="#E8381B" offset="95%"/></linearGradient><linearGradient x1="108.214%" y1="78.328%" x2="-8.006%" y2="13.795%" id="l"><stop stop-color="#F95300" offset="0%"/><stop stop-color="#FAA743" stop-opacity="0" offset="100%"/></linearGradient><linearGradient x1="73.955%" y1="90.388%" x2="23.39%" y2="-8.198%" id="m"><stop stop-color="#E8381B" stop-opacity="0" offset="19%"/><stop stop-color="#E8381B" offset="95%"/></linearGradient><linearGradient x1="-2.033%" y1="75.083%" x2="101.256%" y2="24.629%" id="n"><stop stop-color="#FD7E23" stop-opacity="0" offset="0%"/><stop stop-color="#FD7E23" stop-opacity=".18" offset="17%"/><stop stop-color="#FD7E23" stop-opacity=".62" offset="56%"/><stop stop-color="#FD7E23" offset="87%"/></linearGradient><linearGradient x1=".071%" y1="50.455%" x2="99.985%" y2="50.455%" id="o"><stop stop-color="#F95300" offset="25%"/><stop stop-color="#FF7111" offset="58%"/><stop stop-color="#FD7E23" offset="100%"/></linearGradient><linearGradient x1="56.497%" y1="71.222%" x2="41.463%" y2="28.133%" id="p"><stop stop-color="#E8381B" stop-opacity="0" offset="24%"/><stop stop-color="#E8381B" offset="95%"/></linearGradient><linearGradient x1="65.867%" y1="40.396%" x2="39.66%" y2="89.168%" id="q"><stop stop-color="#1B2933" stop-opacity="0" offset="0%"/><stop stop-color="#17232C" offset="100%"/></linearGradient><linearGradient x1="55.72%" y1="105.259%" x2="44.308%" y2="-5.275%" id="r"><stop stop-color="#5C1500" offset="0%"/><stop stop-color="#CF1A00" offset="82%"/></linearGradient><linearGradient x1="71.528%" y1="101.456%" x2="26.385%" y2="-1.64%" id="s"><stop stop-color="#5C1500" stop-opacity=".6" offset="0%"/><stop stop-color="#631500" stop-opacity=".56" offset="30%"/><stop stop-color="#791600" stop-opacity=".45" offset="55%"/><stop stop-color="#9D1800" stop-opacity=".26" offset="78%"/><stop stop-color="#CF1A00" stop-opacity="0" offset="100%"/></linearGradient><linearGradient x1="73.369%" y1="101.499%" x2="26.617%" y2="-1.502%" id="t"><stop stop-color="#5C1500" stop-opacity=".6" offset="0%"/><stop stop-color="#CF1A00" stop-opacity="0" offset="82%"/></linearGradient><linearGradient x1="145.188%" y1="76.55%" x2="-36.48%" y2="17.252%" id="u"><stop stop-color="#5C1500" offset="0%"/><stop stop-color="#E81600" offset="82%"/></linearGradient><linearGradient x1="4.303%" y1="94.414%" x2="67.008%" y2="-1.438%" id="v"><stop stop-color="#CF3000" offset="0%"/><stop stop-color="#CF3000" stop-opacity=".1" offset="100%"/></linearGradient><linearGradient x1="132844%" y1="63167.277%" x2="144858%" y2="57595.001%" id="w"><stop stop-color="#5C1500" stop-opacity=".6" offset="0%"/><stop stop-color="#CF1A00" stop-opacity="0" offset="82%"/></linearGradient><linearGradient x1="1658749%" y1="104045%" x2="1669090%" y2="104045%" id="x"><stop stop-color="#5C1500" offset="0%"/><stop stop-color="#CF1A00" offset="82%"/></linearGradient><linearGradient x1="32873.728%" y1="84048%" x2="33678.51%" y2="88206%" id="y"><stop stop-color="#FD7E23" stop-opacity="0" offset="0%"/><stop stop-color="#FD7E23" stop-opacity=".18" offset="17%"/><stop stop-color="#FD7E23" stop-opacity=".62" offset="56%"/><stop stop-color="#FD7E23" offset="87%"/></linearGradient><linearGradient x1="67.912%" y1="75.944%" x2="38.275%" y2="20.201%" id="z"><stop stop-color="#CF3000" offset="0%"/><stop stop-color="#EE4A00" offset="36%"/><stop stop-color="#CF3000" offset="100%"/></linearGradient><linearGradient x1="62734.515%" y1="84648%" x2="63539.297%" y2="88806%" id="A"><stop stop-color="#FD7E23" stop-opacity="0" offset="0%"/><stop stop-color="#FD7E23" stop-opacity=".18" offset="17%"/><stop stop-color="#FD7E23" stop-opacity=".62" offset="56%"/><stop stop-color="#FD7E23" offset="87%"/></linearGradient></defs><g transform="translate(-1 -1)" fill="none" fill-rule="evenodd"><path fill="url(#a)" fill-rule="nonzero" d="M1035.164 450.951L695.361 648.225l-350.838.753L1.191 450.956l515.301-299.163z"/><g fill-rule="nonzero"><path fill="#FF690F" d="M733.651 102.302l-.153 54.749-47.692-27.507.153-54.748z"/><path fill="#F95300" d="M733.651 102.302l4.399-2.552-.154 54.749-4.398 2.552z"/><path fill="url(#b)" d="M.495 2.6L4.893.048l47.692 27.506-4.398 2.552z" transform="translate(685.465 72.196)"/></g><path d="M716.355 119.168a5.151 5.151 0 0 1 2.338 4.049v5.401l-1.565-.901v-2.706l-15.668-9.038v2.706l-1.59-.911v-5.402c0-1.487 1.061-2.082 2.363-1.334l14.122 8.136zM703.044 107.886v2.696l-1.565-.907v-5.387l15.678 9.037v5.388l-1.566-.902v-2.696l-3.14-1.809c-1.296-.748-2.353-.148-2.353 1.339l-1.565-.902a5.18 5.18 0 0 0-2.348-4.054l-3.14-1.803z" fill="#FF8815" fill-rule="nonzero"/><g fill-rule="nonzero"><path fill="#FF690F" d="M669.791 66.329l-.158 54.748-47.692-27.506.158-54.748z"/><path fill="#F95300" d="M669.791 66.329l4.399-2.552-.159 54.748-4.398 2.552z"/><path fill="url(#c)" d="M.5 2.605L4.897.053 52.59 27.559l-4.399 2.552z" transform="translate(621.6 36.218)"/></g><path d="M651.53 82.231a5.151 5.151 0 0 1 2.338 4.049v5.401l-1.565-.902v-2.705l-15.668-9.038v2.706l-1.59-.912V75.43c0-1.487 1.061-2.082 2.363-1.334l14.122 8.136zM638.22 70.948v2.696l-1.566-.906V67.35l15.678 9.037v5.387l-1.566-.902v-2.696l-3.14-1.808c-1.296-.748-2.353-.149-2.353 1.338l-1.565-.901a5.18 5.18 0 0 0-2.348-4.054l-3.14-1.804z" fill="#FF8815" fill-rule="nonzero"/><g fill-rule="nonzero"><path fill="#FF690F" d="M608.568 31.075l-.154 54.744-47.692-27.506.154-54.744z"/><path fill="#F95300" d="M608.568 31.075l4.403-2.557-.158 54.75-4.399 2.551z"/><path fill="url(#d)" d="M.26 2.85L4.657.292l47.697 27.506-4.404 2.557z" transform="translate(560.616 .72)"/></g><path d="M590.806 47.668a5.151 5.151 0 0 1 2.338 4.049v5.401l-1.565-.906v-2.7l-15.669-9.039v2.701l-1.57-.906V40.87c0-1.492 1.066-2.087 2.363-1.339l14.103 8.136zM577.495 36.38v2.716l-1.565-.902v-5.392l15.668 9.038v5.392l-1.565-.902v-2.696l-3.136-1.809c-1.301-.748-2.353-.148-2.358 1.339l-1.565-.902a5.16 5.16 0 0 0-2.348-4.054l-3.131-1.827z" fill="#FF8815" fill-rule="nonzero"/><path fill="#FF690F" fill-rule="nonzero" d="M408.777 56.428l.072 25.803-22.482 12.971-.077-25.808z"/><path fill="#F95300" fill-rule="nonzero" d="M386.367 95.202l-3.386-1.967-.072-25.803 3.38 1.962z"/><path fill="url(#e)" fill-rule="nonzero" d="M386.29 69.394l-3.38-1.962 22.482-12.971 3.385 1.967z"/><path d="M397.733 66.44c4.528-2.615 8.216-.519 8.23 4.681.015 5.2-3.65 11.513-8.163 14.151-4.514 2.639-8.216.514-8.23-4.686-.015-5.2 3.63-11.542 8.163-14.147z" fill="#FF690F" fill-rule="nonzero"/><ellipse fill="#F95300" fill-rule="nonzero" cx="397.8" cy="66.194" rx="1" ry="1"/><ellipse fill="#F95300" fill-rule="nonzero" cx="402.122" cy="65.235" rx="1" ry="1"/><ellipse fill="#F95300" fill-rule="nonzero" cx="405.003" cy="67.154" rx="1" ry="1"/><ellipse fill="#F95300" fill-rule="nonzero" cx="397.8" cy="85.383" rx="1" ry="1"/><ellipse fill="#F95300" fill-rule="nonzero" cx="405.963" cy="70.992" rx="1" ry="1"/><ellipse fill="#F95300" fill-rule="nonzero" cx="404.523" cy="76.748" rx="1" ry="1"/><ellipse fill="#F95300" fill-rule="nonzero" cx="402.122" cy="81.545" rx="1" ry="1"/><ellipse fill="#F95300" fill-rule="nonzero" cx="393.478" cy="86.342" rx="1" ry="1"/><ellipse fill="#F95300" fill-rule="nonzero" cx="390.117" cy="83.944" rx="1" ry="1"/><ellipse fill="#F95300" fill-rule="nonzero" cx="390.597" cy="75.309" rx="1" ry="1"/><ellipse fill="#F95300" fill-rule="nonzero" cx="393.478" cy="70.032" rx="1" ry="1"/><ellipse fill="#F95300" fill-rule="nonzero" cx="389.637" cy="80.586" rx="1" ry="1"/><path d="M398.04 76.028l-3.121-1.199M403.082 68.113l-5.042 7.915" stroke="#EE4A00" stroke-width=".96" stroke-linecap="round"/><g fill-rule="nonzero"><path fill="#19272F" d="M658.685 276.387l-67.01 38.904-149.386-86.16 67.01-38.904z"/><path fill="#982300" d="M658.685 276.387l-.063 21.51-67.01 38.904.063-21.51z"/><path fill="#C12400" d="M591.675 315.29l-.063 21.51-149.385-86.164.062-21.505z"/></g><path fill="#F95300" fill-rule="nonzero" d="M513.654 112.069v24.8l-62.765 38.919-24.825-14.382z"/><path fill="#FF6700" fill-rule="nonzero" d="M677.44 206.806l-85.64 49.72-168.132-96.976 85.636-49.717 4.35 2.236-67.254 39.575 153.707 92.343 70.755-40.976z"/><path fill="#982300" fill-rule="nonzero" d="M677.44 206.806l-.196 68.823-85.636 49.716.192-68.818z"/><path fill="#E63409" fill-rule="nonzero" d="M677.44 206.806l-.196 68.823-85.636 49.716.192-68.818z"/><path fill="#F95300" fill-rule="nonzero" d="M591.8 256.527l-.192 68.818-168.137-96.972.197-68.823z"/><path fill="#FF6700" fill-rule="nonzero" d="M467.657 165.364l45.997-28.495 135.22 78.979-48.767 28.14z"/><path fill="url(#f)" fill-rule="nonzero" opacity=".8" d="M467.657 165.364l45.997-28.495 135.22 78.979-48.767 28.14z"/><g fill-rule="nonzero"><path fill="#FCFCFC" d="M600.26 201.903l-11.73 6.807-36.907-21.285 11.726-6.807z"/><path fill="#DAE6EE" d="M600.26 201.903l-.004 1.29L588.53 210v-1.29z"/><path fill="#EEF6FE" d="M588.53 208.71V210l-36.907-21.284v-1.29z"/></g><path fill="#EEF6FE" fill-rule="nonzero" d="M575.944 170.271l-.144 49.952-64.302-37.086.144-49.957z"/><path fill="#DAE6EE" fill-rule="nonzero" d="M575.944 170.271l1.489-.868-.145 49.956-1.488.864z"/><path fill="#FCFCFC" fill-rule="nonzero" d="M511.642 133.18l1.489-.863 64.302 37.086-1.489.868z"/><path fill="url(#g)" fill-rule="nonzero" d="M575.944 170.271l-.144 49.952-64.302-37.086.144-49.957z"/><path fill="#FFC4AF" fill-rule="nonzero" d="M543.411 201.423l.88-21.462 8.628 27.09z"/><g fill-rule="nonzero"><path d="M536.079 174.996l8.394 4.236-1.82 32.275a.825.825 0 0 0 .96.858c-.63.37-1.41.37-2.04 0l-13.7-8.155a1.544 1.544 0 0 1-.682-1.803l8.888-27.41z" fill="#EEF6FE"/><path fill="#FCFCFC" d="M536.012 174.977l1.119-.647 7.697 4.585-1.114.648z"/><path d="M543.714 179.563l1.114-.648-1.738 31.719a.36.36 0 0 0 .48.35l9.407-4.001.033.398-9.805 5.162a.923.923 0 0 1-1.33-.873l1.839-32.107z" fill="#DAE6EE"/></g><path d="M543.623 201.644l9.243 5.349-9.354 4.058a.303.303 0 0 1-.422-.297l.533-9.11z" fill="#E63409" fill-rule="nonzero"/><path fill="#FAA743" fill-rule="nonzero" d="M464.358 160.087l-20.6 10.554v59.627l110.395 62.266 2.641-56.462 19.544-11.08z"/><path fill="#E63409" fill-rule="nonzero" d="M576.338 224.991v2.552l-17.431 9.935-2.555 53.914-2.199 1.142 2.641-56.462z"/><path fill="#FF8815" fill-rule="nonzero" d="M443.58 170.64v59.628l110.395 62.266 2.642-56.462z"/><g fill-rule="nonzero"><path fill="#DAE6EE" d="M585.682 219.494l19.428 11.282 24.845-14.328-19.433-11.283z"/><path fill="#982300" d="M585.682 219.494v.863l19.433 11.278-.005-.859z"/><path fill="#4E5B64" d="M605.11 230.776l.005.86 24.845-14.33-.005-.858z"/></g><g fill-rule="nonzero"><path fill="#E63409" d="M586.09 217.215l19.433 11.278 24.84-14.329-19.428-11.278z"/><path fill="#982300" d="M586.09 217.215l.005.859 19.428 11.282v-.863z"/><path fill="#4E5B64" d="M605.523 228.493v.863l24.845-14.328-.005-.864z"/></g><g fill-rule="nonzero"><path fill="#CF3000" d="M605.84 228.685l.01 3.377 24.801-14.367-.01-3.377z"/><path fill="#982300" d="M605.84 228.685l-.744-.432.01 3.377.744.432z"/><path fill="#EE4A00" d="M630.642 214.318l-.744-.432-24.802 14.367.744.432z"/></g><path fill="#EEF6FE" fill-rule="nonzero" d="M586.796 218.5l-.053 1.282 18.382 10.711-.053-1.405z"/><path fill="url(#h)" fill-rule="nonzero" d="M586.83 218.515l.019.792 18.29 10.572-.033-.772z"/><path fill="#E63409" fill-rule="nonzero" opacity=".5" d="M577.394 188.778v-2.437l33.08 19.26-21.944 4.4 11.774-6.774.13-1.32z"/><path fill="url(#i)" fill-rule="nonzero" d="M443.58 170.64v59.628l110.395 62.266 2.642-56.462z"/><path fill="url(#j)" fill-rule="nonzero" opacity=".8" d="M549.356 209.382l3.698-1.934-.188-.465 22.934 13.24 1.488-.864.03-40.587 51.485 29.684-25.705 12.314-16.11-3.958-.898.403.005.859.735.441-.15.365-.998.614-.192.791-6.554 4.27-25.618-15.173-2.027 1.055z"/><path fill="url(#k)" fill-rule="nonzero" opacity=".8" d="M584.87 249.672l4.414-15.744-12.951-6.404-17.43 9.94-2.555 53.909-2.377 1.141-106.232-59.718v2.878l135.734 77.88z"/><g opacity=".5" fill="#E63409" fill-rule="nonzero"><path d="M463.528 212.725l-4.466-2.576.02-5.761-4.102-2.365-.048 15.331 4.101 2.365.02-5.934 4.465 2.571-.019 5.94 4.106 2.364.043-15.331-4.106-2.365zM483.254 216.875l-5.282-3.051c-1.657-.96-2.521-1.113-3.14-.768-.927.509-1.734 2.053-1.749 7.085-.014 5.032.778 7.498 1.705 9.076.615 1.06 1.474 1.895 3.13 2.85l5.283 3.05c1.661.96 2.526 1.114 3.14.763.932-.503 1.734-2.053 1.748-7.085.015-5.032-.773-7.493-1.704-9.071-.61-1.055-1.475-1.895-3.131-2.85zm-.63 13.431c-.134.077-.36 0-1.041-.393l-2.022-1.166c-.682-.393-.907-.575-1.047-.81-.139-.236-.427-.902-.417-4.917.01-4.016.288-4.318.446-4.414.159-.096.365 0 1.047.394l2.017 1.165c.686.394.907.576 1.047.811.139.235.427.926.417 4.912-.01 3.987-.283 4.342-.446 4.433v-.015zM510.528 231.18l-.043 19.653 10.91 6.294.014-4.99-6.814-3.928.01-2.581 4.956 2.86.01-3.287-4.956-2.859.004-2.365 6.81 3.929.01-6.428zM532.185 258.379l.033-14.689-6.026-3.324-.043 19.648 12.244 6.918.01-4.965zM491.45 228.172l3.914 2.259-.034 11.259 5.062 2.36.033-11.254 4.01 2.312.01-7.435-12.985-6.932z"/></g><g fill-rule="nonzero"><path fill="#E2550E" d="M454.97 211.627l2.71-1.574-.02 5.934-2.708 1.574zM454.98 207.99l2.709-1.573 4.465 2.576-2.708 1.573z"/><path fill="#FAA743" d="M450.899 199.864l2.703-1.568 4.101 2.36-2.703 1.573z"/><path fill="#E2550E" d="M455 202.23l2.703-1.574-.014 5.761-2.709 1.573z"/><path fill="#FF8815" d="M463.566 207.17l-.043 15.331-4.106-2.364.02-5.94-4.466-2.57-.02 5.934-4.1-2.365.048-15.332 4.1 2.365-.019 5.761 4.466 2.576.015-5.76z"/><path fill="#E2550E" d="M463.566 207.17l2.708-1.569-.048 15.327-2.703 1.573z"/><path fill="#FAA743" d="M459.46 204.805l2.709-1.573 4.105 2.37-2.708 1.568z"/><path fill="#E63409" d="M454.98 207.99l4.447-.518-1.738-1.055.014-5.761-2.703 1.573zM454.97 211.627l2.714 1.664-2.641 1.44z"/></g><path d="M480.906 225.672h-.13l-.086-.028-.096-.039h-.03l-.086-.043-.086-.043-.067-.039-.24-.134-1.695-.96-.135-.076c-.077-.048-.149-.086-.211-.13h-.029a.917.917 0 0 1-.1-.067h-.025l-.091-.067-.087-.072-.072-.067-.057-.067-.048-.072a.173.173 0 0 1 0-.043v-.058a1.14 1.14 0 0 1-.058-.158v-.1-.136l-.029-.153v-.052a1.165 1.165 0 0 1 0-.144 2.113 2.113 0 0 1-.028-.264v-.25a.177.177 0 0 0 0-.052v-.23-.217-.163-.278-.163a.676.676 0 0 1 0-.1v-.337-.143-1.055-.605-.48a1.17 1.17 0 0 0 0-.13v-.297-.144-.206-.225-.351-.144-.244-.072-.082-.153V216.26a.268.268 0 0 1 0-.058.091.091 0 0 1 0-.034.144.144 0 0 1 0-.048.077.077 0 0 1 0-.033l.033-.039.034-.024-2.708 1.57-.034.028-.034.038v.067a.067.067 0 0 0 0 .034.053.053 0 0 0 0 .029v.268a.081.081 0 0 1 0 .034V218.333a.369.369 0 0 1 0 .072v.153c.002.03.002.061 0 .091a.235.235 0 0 1 0 .058.551.551 0 0 1 0 .086V223.917a.177.177 0 0 1 0 .052v.23c0 .097 0 .188.03.27v.426a.173.173 0 0 0 0 .048v.163a.12.12 0 0 0 0 .034v.125l.038.028a.288.288 0 0 0 .038.039l.043.033.048.034.096.062.207.13h.028l.106.062 1.695.96.24.134h.03l.042.024.087.043h.446l2.709-1.569.312.427z" fill="#E2550E" fill-rule="nonzero"/><path d="M481.386 218.323c.783 1.329 1.44 3.397 1.44 7.623 0 4.226-.681 5.53-1.469 5.958-.514.292-1.244.158-2.636-.648l-4.442-2.562c-1.392-.8-2.117-1.506-2.631-2.398-.778-1.324-1.44-3.401-1.44-7.627 0-4.227.686-5.527 1.469-5.954.518-.292 1.243-.158 2.636.643l4.441 2.567c1.388.806 2.113 1.51 2.632 2.398zm-3.16 8.904c.14-.077.365-.36.375-3.713.01-3.353-.216-3.896-.35-4.126-.135-.23-.303-.35-.88-.681l-1.695-.96c-.571-.33-.763-.398-.878-.335-.116.062-.365.36-.375 3.713-.01 3.353.221 3.9.35 4.13.13.23.308.35.88.681l1.695.96c.576.33.763.398.878.33z" fill="#FF8815" fill-rule="nonzero"/><path d="M485.515 224.454v-.077-.7-.207-.273-.11c0-.288 0-.562-.038-.825v-.039c-.02-.243-.038-.478-.058-.705v-.057-.188l-.043-.364v-.077l-.029-.192c0-.086-.024-.177-.038-.264-.014-.086 0-.052 0-.076s0-.14-.038-.207c-.039-.067 0-.13-.034-.196a.206.206 0 0 0 0-.053c0-.1-.038-.192-.058-.288a.618.618 0 0 0 0-.091c-.028-.12-.052-.235-.081-.345v-.039-.091l-.048-.177-.03-.11-.028-.092a.398.398 0 0 1 0-.072c-.029-.081-.053-.163-.082-.24a.067.067 0 0 0 0-.033l-.057-.168-.048-.13v-.067l-.072-.173-.039-.086v-.038a.172.172 0 0 1 0-.043l-.072-.164-.028-.052v-.048l-.03-.058c-.028-.067-.062-.125-.09-.187l-.058-.1a1.395 1.395 0 0 0-.082-.145v-.024c-.057-.1-.12-.196-.182-.292l-.12-.168-.087-.115-.062-.077-.087-.106-.096-.1-.09-.096-.12-.115a.384.384 0 0 0-.063-.063l-.03-.028-.042-.039-.154-.134-.1-.082-.044-.033-.034-.03-.211-.157a.922.922 0 0 0-.082-.063l-.076-.053-.087-.062-.307-.201a8.78 8.78 0 0 0-.38-.23l-.105-.063-4.442-2.562-.326-.182-.106-.057-.115-.058-.106-.058-.576-.249-.183-.077-.182-.067-.144-.048-.14-.038H474.766l-.092.024h-.039a.96.96 0 0 0-.172.076l-.039.024-2.703 1.57h.033a.96.96 0 0 1 .192-.082h.039l.197-.039c.083-.01.166-.01.25 0 .09.009.18.023.268.043h.03c.095 0 .206.058.316.096l.365.149.375.177.115.063.432.235 4.442 2.566c.173.096.336.197.48.293.14.086.269.173.394.264l.076.053c.116.081.226.167.332.249l.038.029c.106.086.207.172.298.259l.029.029c.1.09.192.182.278.273.089.093.172.19.25.293.082.1.154.201.22.302.074.103.14.21.202.321l.096.163c.016.035.034.069.053.101.044.077.087.163.125.245v.048c.043.086.082.172.12.259v.043c.043.091.082.187.12.283v.043c.034.096.072.192.106.293v.038c.034.1.067.211.1.326l.03.091c0 .092.052.192.076.288.024.096 0 .058.024.091.034.13.063.26.096.399a.68.68 0 0 0 0 .096c0 .11.044.225.068.34.024.115 0 .13.033.197l.043.283c0 .086.03.172.039.264.01.09 0 .177.038.268.039.091.024.24.039.365.014.125 0 .158 0 .24 0 .23.043.48.057.71v.033c0 .264.03.542.039.825v2.826c0 .144 0 .288-.024.422v.388c0 .168-.03.327-.048.48 0 .067 0 .135-.024.197s-.034.259-.053.379a1.466 1.466 0 0 0 0 .153c-.029.135-.053.264-.082.389a.206.206 0 0 1 0 .053c-.026.13-.06.257-.1.383l-.03.106c-.028.077-.052.158-.076.23l-.043.106c-.03.067-.053.134-.082.192l-.043.09a2.792 2.792 0 0 1-.116.212l-.043.067a.902.902 0 0 1-.077.11s-.033.053-.052.072a.864.864 0 0 1-.087.096l-.053.058-.096.081-.048.044a1.575 1.575 0 0 1-.149.095l2.709-1.573a.96.96 0 0 0 .197-.134l.096-.087.052-.057a.74.74 0 0 0 .082-.091l.058-.077c0-.034.053-.067.077-.106v-.024a.196.196 0 0 0 0-.043c.043-.067.081-.139.12-.21a.149.149 0 0 1 .024-.049v-.043c.028-.062.052-.13.081-.197l.034-.076a.067.067 0 0 1 0-.03l.072-.23a.609.609 0 0 0 .029-.086c.033-.115.067-.244.1-.379v-.053c.03-.124.053-.254.077-.388v-.154c0-.12.039-.244.058-.379v-.081a.858.858 0 0 1 0-.11c0-.154.034-.312.048-.48v-.125-.259-.427-.235-.45a.886.886 0 0 0 0-.116c.25-.259.254-.48.254-.705z" fill="url(#l)" fill-rule="nonzero"/><g fill-rule="nonzero"><path fill="#E2550E" d="M496.344 229.678l2.708-1.574-.034 11.739-2.708 1.568z"/><path fill="#FF8815" d="M500.363 228.397l-.01 3.593-4.01-2.312-.033 11.733-4.1-2.365.033-11.733-3.914-2.26.015-3.592z"/><path fill="#E2550E" d="M500.363 228.397l2.708-1.573-.01 3.593-2.708 1.573z"/><path fill="#FAA743" d="M488.344 221.46l2.703-1.568 12.024 6.932-2.708 1.573z"/><path fill="#E63409" d="M498.802 231.16l-2.458-1.482.057 3.161z"/></g><g fill-rule="nonzero"><path fill="#E2550E" d="M510.524 243.47l2.708-1.574-.01 2.586-2.708 1.568z"/><path fill="#FF690F" d="M510.514 246.05l2.708-1.568 6.81 3.928-2.704 1.569z"/><path fill="#E2550E" d="M517.328 249.979l2.703-1.569-.01 3.545-2.708 1.574zM510.538 237.818l2.708-1.573-.01 2.365-2.703 1.573z"/><path fill="#FF690F" d="M510.533 240.183l2.704-1.573 4.96 2.859-2.708 1.573z"/><path fill="#E2550E" d="M515.489 243.042l2.708-1.573-.01 3.286-2.708 1.573z"/><path fill="#FAA743" d="M506.447 231.904l2.703-1.574 10.915 6.294-2.708 1.573z"/><path fill="#E2550E" d="M517.357 238.197l2.708-1.573-.01 3.55-2.708 1.573z"/><path fill="#FF8815" d="M517.357 238.197l-.01 3.55-6.81-3.929-.004 2.365 4.956 2.86-.01 3.285-4.955-2.859-.01 2.581 6.814 3.929-.015 3.55-10.91-6.294.044-15.331z"/></g><g fill-rule="nonzero"><path fill="#FF690F" d="M528.103 256.22l2.708-1.574 6.219 3.589-2.708 1.573z"/><path fill="#E2550E" d="M534.322 259.808l2.708-1.573-.01 3.526-2.708 1.573z"/><path fill="#FF8815" d="M528.137 244.414l-.034 11.806 6.219 3.588-.01 3.526-10.324-5.958.043-15.327z"/><path fill="#E2550E" d="M528.137 244.414l2.708-1.573-.034 11.805-2.708 1.574z"/><path fill="#FAA743" d="M524.031 242.05l2.708-1.574 4.106 2.365-2.708 1.573z"/></g><path d="M472.67 218.29v.086-.086zM472.608 218.688v0zM472.642 218.448v0zM472.867 217.872l-.038.03zM475.206 219.494v2.053a.676.676 0 0 0 0 .1V222.699a.177.177 0 0 1 0 .053v.25c.004.088.014.176.029.263a1.164 1.164 0 0 0 0 .144v.053l.028.153V223.85c.016.055.035.107.058.159v.057a.172.172 0 0 0 0 .043l.048.072.058.068.072.067.086.072.091.067h.024a.917.917 0 0 0 .101.067h.03c.062.043.134.082.21.13l.135.076.23.135v-.96c0-3.358-.216-3.895-.35-4.125-.135-.23-.303-.35-.879-.681l-.23-.135v.355l.259.178zM472.507 220.372V220.502v-.13zM472.584 218.913zM472.522 219.945V219.944zM472.54 219.499v.225c-.004-.081 0-.153 0-.225zM472.565 219.148V219.341c0-.034-.005-.135 0-.193zM475.652 227.51l-.235-.135.235.135zM472.618 224.838c0-.082 0-.173-.03-.269l.03.269zM472.79 217.95l.034-.04-.033.04zM473.588 226.32l-.207-.125.207.125zM472.743 218.117zM472.502 222.785v-.144c-.004.048 0 .096 0 .144zM472.565 224.32v-.058a.163.163 0 0 1 0 .058zM472.685 218.223v-.048.048zM476.19 227.73h.005zM475.73 227.548l.086.043zM475.897 227.62h.03zM476.248 227.725h.005zM476.118 227.72h.005-.005zM472.493 222.132V222.281v-.149zM472.67 225.188v.033zM472.637 224.986zM472.507 223.12v-.23.331c.005-.033 0-.067 0-.1zM472.517 223.389v.274c0-.03.005-.178 0-.274zM472.536 223.82v.221a1.693 1.693 0 0 0 0-.22zM473.021 225.931h.005z"/><path fill="#FF8815" fill-rule="nonzero" d="M472.79 225.61l-.028-.058zM472.896 225.792l-.057-.072zM472.949 225.86v.023l-.072-.072zM472.743 225.452v.043a.12.12 0 0 0 0 .033l-.03-.086.03.01zM472.709 225.35v.093l-.029-.102z"/><path d="M472.771 225.567s0-.043-.028-.072l.028.072zM472.853 225.725v.039l-.048-.072.048.033zM473.588 226.32h.028l.106.062-.134-.076zM475.845 227.62h.052l-.081-.043zM476.104 227.72h.067-.067zM475.94 227.654h.063l-.096-.039zM476.037 227.692h.067l-.082-.029zM476.272 227.72h.024-.043zM473.026 225.936l.038.029a.288.288 0 0 0 .039.038l-.087-.072.01.005zM475.657 227.51h.03l.042.024-.077-.039zM473.16 226.047l.048.033-.09-.067zM473.223 226.094l.096.063-.11-.072zM472.69 225.274a.211.211 0 0 0 0 .048c0-.033 0-.067-.024-.105l.024.057z" fill="#FF8815" fill-rule="nonzero"/><path d="M472.829 225.701v.034a.197.197 0 0 0 0-.043v.01zM472.618 218.606v.082a.533.533 0 0 0 0-.082zM472.685 218.227v.063-.067.004zM472.743 218.117a.053.053 0 0 0 0 .029v.029a.202.202 0 0 1 0-.058zM472.598 218.76V218.755v.005zM472.57 219.062a.552.552 0 0 1 0 .086v-.144a.235.235 0 0 1 0 .058zM472.656 218.376v.038a.082.082 0 0 1 0 .034v-.072zM472.743 218.026V218.007v.019zM472.743 218.026a.144.144 0 0 1 0-.039v.039zM472.55 224.09V224.041v.047zM472.526 219.815V219.724c.005.029 0 .058 0 .091zM472.646 225.034v.135c0-.048-.01-.101-.028-.159l.028.024zM472.565 224.324V224.305v.02zM472.618 224.838V224.828v.01zM472.512 223.25v-.034.034zM472.517 220.07V220.068zM472.498 220.981v-.25.25zM472.493 221.441v-.364.364z" fill="#FF8815" fill-rule="nonzero"/><path d="M474.414 221.82v2.294c0 .08 0 .182.028.263.03.082 0 .1 0 .149a.134.134 0 0 1 0 .043l.03.154v.019c0 .038 0 .072.023.105l.029.101.029.086.029.072c.008.02.018.04.028.058a.196.196 0 0 1 0 .043l.048.072.058.067.072.072.087.072.09.067.111.072.207.125.134.077a19.377 19.377 0 0 0 2.588-1.08c.103-.054.209-.102.317-.144v-.206l-.23-.13-.135-.081-.21-.125h-.03a.528.528 0 0 1-.1-.067h-.025l-.09-.067-.087-.072-.072-.067.201-.01-.048-.067v-.101a.959.959 0 0 1-.057-.158v-.1-.135c0-.048 0-.096-.03-.153-.028-.058 0-.034 0-.053a1.164 1.164 0 0 1 0-.144 2.114 2.114 0 0 1-.028-.264v-.25a.216.216 0 0 0 0-.052v-.226-.22-.163-.279-.163a.676.676 0 0 1 0-.1v-.336-.144-1.055-.605-.355l-1.464-.844c-.572-.331-.764-.398-.88-.331h-.033l-.033.038a.077.077 0 0 0 0 .034.48.48 0 0 0 0 .048.067.067 0 0 0 0 .033.268.268 0 0 0 0 .058V218.127a.48.48 0 0 1 0 .081v.226c.002.03.002.06 0 .09V221.802l-.557.02zM510.538 237.818l5.59 3.253-2.042 1.2-3.553-2.088zM510.524 243.47l4.955 2.858.447-.259 1.483.84-2.76 1.64-4.135-2.499z" fill="#E63409" fill-rule="nonzero"/><path fill="#982300" d="M442.14 239.675l149.463 85.656-.125 5.008-149.338-85.867z"/><path fill="url(#m)" fill-rule="nonzero" opacity=".8" d="M578.671 239.68l-2.319 3.597 16.163 12.55 14.406-8.472-24.648-10.194z"/><path d="M589.701 227.073V227.288c.003.031.003.062 0 .092V227.663c0 .029 0 .062-.024.091-.024.029 0 .063-.033.096a.643.643 0 0 1-.034.087l-.043.1a.68.68 0 0 1-.039.087 1.017 1.017 0 0 1-.052.1l-.058.106-.1.153v.03l-.111.148v.029l-.11.124-.03.034-.139.149-.029.024-.115.105-.096.087-.091.076-.106.082-.1.072-.111.081-.11.072-.12.077-.154.096-.308.168-.09.043c-.082.038-.164.082-.25.115l-.087.039-.331.139h-.063l-.288.1-.12.044-.163.048-.14.038-.167.048-.14.034-.173.038-.139.033-.177.034h-.135l-.38.062h-.052l-.331.039H581.745l-.322-.043h-.048l-.274-.044h-.115l-.207-.038h-.105l-.226-.053-.125-.028-.201-.053-.116-.034-.317-.096h-.057l-.35-.13-.145-.057-.11-.048-.154-.067-.1-.048-.169-.082-.081-.043-.24-.13c-1.321-.762-1.984-1.76-1.979-2.758l-.043 15.289c0 .997.658 1.995 1.973 2.758l.245.134.082.039.168.086.1.043.155.072.11.043.11.048h.034c.115.048.23.091.35.13h.058l.317.096H580.078l.202.053.125.033.226.048H580.736l.207.038h.115l.269.044h.053c.105 0 .211.028.321.043h2.464l.331-.043h.053l.38-.063h.133l.178-.033.14-.034.172-.038.14-.034.168-.043.14-.043.162-.048h.12l.288-.1h.063c.11-.044.226-.087.331-.135l.087-.039.25-.12.09-.043.308-.168.082-.048.072-.048.12-.076.11-.072.11-.077.101-.077.106-.081.091-.077.096-.082.039-.038.076-.072.03-.024.139-.144.028-.038c.04-.04.077-.081.11-.125v-.029l.102-.134v-.029l.1-.153.034-.058v-.048c.02-.032.037-.066.053-.1a.68.68 0 0 0 .038-.087l.044-.1v-.087c0-.029 0-.062.033-.096a.58.58 0 0 1 0-.086v-.154a.081.081 0 0 1 0-.033v-.101a.527.527 0 0 0 0-.086v-.101-.12l.288-15.298z" fill="#DAE6EE" fill-rule="nonzero"/><ellipse fill="#FAA743" fill-rule="nonzero" transform="rotate(-89.84 582.977 227.036)" cx="582.977" cy="227.036" rx="3.875" ry="6.687"/><ellipse fill="url(#n)" fill-rule="nonzero" transform="rotate(-89.84 582.977 227.036)" cx="582.977" cy="227.036" rx="3.875" ry="6.687"/><ellipse fill="#E63409" fill-rule="nonzero" transform="rotate(-89.84 582.919 227.007)" cx="582.919" cy="227.007" rx="3.102" ry="5.349"/><path d="M589.701 227.073V227.288c.003.031.003.062 0 .092V227.663c0 .029 0 .062-.024.091-.024.029 0 .063-.033.096a.643.643 0 0 1-.034.087l-.043.1a.68.68 0 0 1-.039.087 1.017 1.017 0 0 1-.052.1l-.058.106-.1.153v.03l-.111.148v.029l-.11.124-.03.034-.139.149-.029.024-.115.105-.096.087-.091.076-.106.082-.1.072-.111.081-.11.072-.12.077-.154.096-.308.168-.09.043c-.082.038-.164.082-.25.115l-.087.039-.331.139h-.063l-.288.1-.12.044-.163.048-.14.038-.167.048-.14.034-.173.038-.139.033-.177.034h-.135l-.38.062h-.052l-.331.039H581.745l-.322-.043h-.048l-.274-.044h-.115l-.207-.038h-.105l-.226-.053-.125-.028-.201-.053-.116-.034-.317-.096h-.057l-.35-.13-.145-.057-.11-.048-.154-.067-.1-.048-.169-.082-.081-.043-.24-.13c-1.321-.762-1.984-1.76-1.979-2.758l-.043 15.289c0 .997.658 1.995 1.973 2.758l.245.134.082.039.168.086.1.043.155.072.11.043.11.048h.034c.115.048.23.091.35.13h.058l.317.096H580.078l.202.053.125.033.226.048H580.736l.207.038h.115l.269.044h.053c.105 0 .211.028.321.043h2.464l.331-.043h.053l.38-.063h.133l.178-.033.14-.034.172-.038.14-.034.168-.043.14-.043.162-.048h.12l.288-.1h.063c.11-.044.226-.087.331-.135l.087-.039.25-.12.09-.043.308-.168.082-.048.072-.048.12-.076.11-.072.11-.077.101-.077.106-.081.091-.077.096-.082.039-.038.076-.072.03-.024.139-.144.028-.038c.04-.04.077-.081.11-.125v-.029l.102-.134v-.029l.1-.153.034-.058v-.048c.02-.032.037-.066.053-.1a.68.68 0 0 0 .038-.087l.044-.1v-.087c0-.029 0-.062.033-.096a.58.58 0 0 1 0-.086v-.154a.081.081 0 0 1 0-.033v-.101a.527.527 0 0 0 0-.086v-.101-.12l.288-15.298z" fill="#FF8815" fill-rule="nonzero"/><path d="M579.18 229.27c2.099 1.214 5.489 1.214 7.573 0 1.234-.69 1.714-1.65 1.503-2.61a1.252 1.252 0 0 0-.11-.12 1.268 1.268 0 0 0-.577-.263l-.091-.029s-.082-.125-.086-.14a.48.48 0 0 0-.697-.133l-.043-.039c-.168-.153-.202-.096-.38-.163a.84.84 0 0 1-.326-.25 1.864 1.864 0 0 0-.37-.158 1.106 1.106 0 0 0-.398 0h-.038c-.188-.115-.255-.225-.514-.187-.26.039-.36.394-.615.298-.158-.058-.058-.298-.365-.207-.14.044-.278.226-.394.312l-.09.053-1.12.077.884-.058c-.087-.057-.154-.177-.35-.177-.198 0-.48.235-.702.297l-.22.043c-.289.14-.558.35-.649.029-.389-.082-.672.134-1.051.168h-.217l-.384.139c-.053.077-.081.173-.139.24a.605.605 0 0 1-.22.158.792.792 0 0 0-.481.374 1.166 1.166 0 0 1-.283.427c-.038.06-.08.118-.125.173a1.85 1.85 0 0 0-.043.686 2.815 2.815 0 0 1-.26-.427l-.062.053c.31.622.816 1.126 1.44 1.434z" fill="#4C0E00" fill-rule="nonzero"/><path d="M582.739 227.932c-.85-.48-1.249-1.698-2.118-2.284-.658-.446-1.71-.441-1.181-1.439.278-.518 1.805-1.29 1.824-1.736.02-.446-.825-.936-1.075-1.161a7.797 7.797 0 0 1-1.2-1.44c-.36-.517-1.816-1.515-1.758-2.22 0-.255.72-.72.86-.96 1.253-2.082-1.95-4.159-1.57-6.466 1.531.038 3.116 3.003 3.562 4.221.879 2.399 2.77 4.505 2.987 7.143.053.628-.135 1.314 0 1.919.082.398.26.96.355 1.329.164.647.548 1.333.37 2.096-.125.552-.845 1.593-.634 1.957a6.034 6.034 0 0 0 .25-1.53 10.917 10.917 0 0 1 .451-3.454c.557-1.67-.25-3.152-.048-4.869.14-1.185 0-2.399.096-3.56.12-1.266.644-1.319 1.052-2.484.322-.926-.312-1.828-.279-2.696.044-1.156.596-1.353.802-2.533.168-.96-.317-2.298-.451-3.224.072.48 2.314 2.058 2.723 2.696a8.36 8.36 0 0 1 1.22 3.387 13.736 13.736 0 0 1-1.038 7.55 4.962 4.962 0 0 0-.682 1.92 4.86 4.86 0 0 1-.154 1.568c-.23.532-.715.887-.926 1.44-.154.412-.135.795-.264 1.218-.288.93-.96 1.717-1.44 2.552-.212.369-.217.786-.395 1.141-.317.614-.48.48-.36 1.219-.552-.178-1.498-1.113-1.522-1.708" fill="#FAA743" fill-rule="nonzero"/><path d="M582.095 229.337c.245-.038.48-.259.74-.264.259-.004.374.264.576.365.289.095.594.131.898.106.36 0 .72.09 1.085.1a.48.48 0 1 0 0-.96c-.389 0-.768-.09-1.157-.1a.961.961 0 0 1-.452-.043 2.174 2.174 0 0 1-.273-.245c-.6-.436-1.076 0-1.676.12-.6.12-.36 1.041.26.96v-.039z" fill="#4C0E00" fill-rule="nonzero"/><path d="M586.143 219.187c.365-.998 1.825-1.804 2.713-2.279a6.417 6.417 0 0 1 1.44-.81 4.08 4.08 0 0 1 1.153.076c.346.049.698 0 1.018-.139.178-.091.783-.61.682-.849.884 2.12-1.104 2.816-2.266 3.977-1.393 1.386-1.206 3.502-2.488 4.854-.845.893-1.973 1.588-2.79 2.49-.48.518-1.147 1.818-2.137 1.286-.033-.71.452-1.44.687-2.101.48-1.296.255-2.692.768-4.01.365-.888.898-1.613 1.22-2.495z" fill="#FF690F" fill-rule="nonzero"/><path d="M589.701 227.073V227.288c.003.031.003.062 0 .092V227.663c0 .029 0 .062-.024.091-.024.029 0 .063-.033.096a.643.643 0 0 1-.034.087l-.043.1a.68.68 0 0 1-.039.087 1.017 1.017 0 0 1-.052.1l-.058.106-.1.153v.03l-.111.148v.029l-.11.124-.03.034-.139.149-.029.024-.115.105-.096.087-.091.076-.106.082-.1.072-.111.081-.11.072-.12.077-.154.096-.308.168-.09.043c-.082.038-.164.082-.25.115l-.087.039-.331.139h-.063l-.288.1-.12.044-.163.048-.14.038-.167.048-.14.034-.173.038-.139.033-.177.034h-.135l-.38.062h-.052l-.331.039H581.745l-.322-.043h-.048l-.274-.044h-.115l-.207-.038h-.105l-.226-.053-.125-.028-.201-.053-.116-.034-.317-.096h-.057l-.35-.13-.145-.057-.11-.048-.154-.067-.1-.048-.169-.082-.081-.043-.24-.13c-1.321-.762-1.984-1.76-1.979-2.758l-.043 15.289c0 .997.658 1.995 1.973 2.758l.245.134.082.039.168.086.1.043.155.072.11.043.11.048h.034c.115.048.23.091.35.13h.058l.317.096H580.078l.202.053.125.033.226.048H580.736l.207.038h.115l.269.044h.053c.105 0 .211.028.321.043h2.464l.331-.043h.053l.38-.063h.133l.178-.033.14-.034.172-.038.14-.034.168-.043.14-.043.162-.048h.12l.288-.1h.063c.11-.044.226-.087.331-.135l.087-.039.25-.12.09-.043.308-.168.082-.048.072-.048.12-.076.11-.072.11-.077.101-.077.106-.081.091-.077.096-.082.039-.038.076-.072.03-.024.139-.144.028-.038c.04-.04.077-.081.11-.125v-.029l.102-.134v-.029l.1-.153.034-.058v-.048c.02-.032.037-.066.053-.1a.68.68 0 0 0 .038-.087l.044-.1v-.087c0-.029 0-.062.033-.096a.58.58 0 0 1 0-.086v-.154a.081.081 0 0 1 0-.033v-.101a.527.527 0 0 0 0-.086v-.101-.12l.288-15.298z" fill="url(#o)" fill-rule="nonzero"/><path fill="url(#p)" fill-rule="nonzero" d="M605.403 231.923l9.44 4.878 26.334-15.59-10.405-5.996-.125 2.46z"/><path d="M728.422 318.615a1.359 1.359 0 0 0-1.095-.715h-.163l-12.965-8.385 15.846-7.195L700 285.276l-30.252 16.79-10.084-4.318-68.508 39.336-30.28-17.72 1.824-1.046h.164l.22.115 3.607.35.931-.532-22.708-12.055-3.61-.35-.927.532 1.19.633-.84.48.48.25-9.277 5.32-171.426-34.026 76.652-40.487 14.18-19.309.322-19.83 2.079-1.277 9.925-15.35 20.97-11.196-20.331-11.672-2.56.96-14.727-9.115 66.91-39.815-4.644-2.24-85.473 49.73-1.44 41.414-116.124 66.199-.322 18.229 40.845 9.239-18.881 3.526.226.076c-1.225.825-11.525 8.506-11.525 8.506l30.252 16.396.048.029h.038a3.75 3.75 0 0 0 1.729-.092l24.437-4.888 13.354 6.14-12.317 8.947 13.887 5.2 29.248-5.852 16.043-11.705-13.863-5.186-28.48 5.7-10.828-6.098 12.1-8.827c.438-.32.48-.537.226-.638h-.052l-18.53-5.113 89.9 20.334-16.807 9.628.086 1.108-.73.418c-.96.546-.518 1.621.96 2.398l3.463 1.837c-.197.03-.387.096-.562.192-.744.427-.408 1.272.75 1.886.638.334 1.34.53 2.06.575h-.169l3.534.346 9.234 4.897c-.344.001-.683.083-.989.24-.744.427-.413 1.271.75 1.885.64.33 1.34.527 2.06.576h-.174l3.611.35h.485l2.843 1.511c.798.412 1.67.66 2.564.73h-.149l1.7.167 1.955 1.037L514 354.037l5.104.302-33.252 20.176 18.727 8.155 55.624-34.683.327-5.113 72.028 16.31 44.93-23.736 38.843 7.196h.072a2.403 2.403 0 0 0 1.517-.331l14.699-8.54-4.197-15.158zm-381.68 4.265v-.03.03zm0 .067v.029-.03zm0-.149v-.033.033zm.154-.201l.048-.039-.048.039zm4.662-1.612a.48.48 0 0 1 .115-.178.48.48 0 0 0-.096.178h-.019zm.375-.398l4.01-2.926-4.01 2.926zm101.54 18.43h.11-.11zm.211 0h.091-.091zm.192-.034l.115-.028-.115.028zm.178-.048l.149-.052-.15.052zm.302-.13c.042-.023.082-.05.12-.08-.032.019-.066.036-.1.052l-.02.029zm.226-.177zm.082-.105v-.034.034zm13.229 8.452h.105-.105zm.21 0h.087-.086zm.193-.033l.11-.03-.11.03zm.173-.048l.14-.048-.14.048zm.163-.058l.087-.043-.087.043zm.37-.25a.13.13 0 0 1-.039.034l.039-.033zm.077-.105v-.043.043zm.081-.216zm0 0v-.052c0-.02.024-.03.02-.015l-.02.067zm8.264 3.358h.135-.135zm.274-.033h.14-.14zm69.276-39.58l10.084 5.31-.782.48.653.35-2.521 1.439-15.366-3.051 7.932-4.529zm179.086 8.193l.067-.03-.067.03zm.422-.154h.067-.067zm.207-.043h.072-.072zm.12 2.835c.183.119.33.284.427.48a1.214 1.214 0 0 0-.408-.566l-.02.086z" fill="url(#q)" fill-rule="nonzero" opacity=".8"/><g fill-rule="nonzero"><path d="M467.46 330.171l2.435-1.439c.057-.032.116-.06.178-.081l-2.44 1.415c-.06.022-.117.05-.173.081" fill="#1B252C"/><path fill="#1C262E" d="M467.648 330.09l2.44-1.415.153-.044-2.44 1.44-.153.043"/><path d="M467.801 330.046l2.44-1.439h.125l-2.44 1.44a1.106 1.106 0 0 0-.125 0" fill="#1D2830"/><path fill="#1E2931" d="M467.94 330.032l2.44-1.439h.11l-2.434 1.41h-.115"/><path fill="#1F2B33" d="M468.042 330.023l2.434-1.41h.106l-2.44 1.438h-.1"/><path fill="#202C35" d="M468.142 330.027l2.44-1.439h.096l-2.44 1.44h-.096"/><path fill="#212D36" d="M468.238 330.037l2.44-1.44h.096l-2.44 1.44h-.096"/><path fill="#222F38" d="M468.334 330.056l2.44-1.439h.086l-2.434 1.415h-.092"/><path fill="#23303A" d="M468.42 330.075l2.435-1.415h.092l-2.435 1.44-.091-.025"/><path fill="#24323B" d="M468.517 330.1l2.434-1.44.087.029-2.435 1.439-.086-.029"/><path fill="#25333D" d="M468.603 330.128l2.435-1.44.091.035-2.44 1.439-.086-.034"/><path fill="#26353F" d="M468.69 330.162l2.44-1.44.086.034-2.44 1.415-.086-.033"/><path fill="#283641" d="M468.776 330.195l2.44-1.415.086.043-2.435 1.44-.09-.044"/><path fill="#293742" d="M468.867 330.238l2.435-1.439.091.048-2.44 1.44-.086-.049"/><path fill="#2A3944" d="M468.954 330.277l2.44-1.44.066.039-2.434 1.415-.072-.038"/><g><path fill="#2A3944" d="M469.026 330.325l2.434-1.415h.024l-2.439 1.415"/><path fill="#2B3A46" d="M469.045 330.334l2.44-1.415.09.058-2.439 1.439-.09-.058"/><path fill="#2C3C47" d="M469.136 330.392l2.44-1.44.09.063-2.434 1.415-.096-.062"/><path fill="#2D3D49" d="M469.232 330.454l2.435-1.415.096.067-2.435 1.44-.096-.068"/><path fill="#2E3E4B" d="M469.328 330.521l2.435-1.439.1.077-2.434 1.44-.1-.078"/><path fill="#2F404D" d="M469.43 330.598l2.434-1.439.105.086-2.439 1.416-.1-.087"/><path fill="#30414E" d="M469.53 330.685l2.44-1.416.11.101-2.435 1.44-.115-.102"/><path fill="#314350" d="M469.645 330.785l2.435-1.439.12.115-2.435 1.44-.12-.116"/><path fill="#324452" d="M469.765 330.9l2.435-1.439.14.144-2.435 1.415-.14-.144"/><path d="M469.905 331.044l2.434-1.415c.063.067.125.14.183.211l-2.435 1.44c-.062-.073-.12-.145-.182-.212" fill="#334653"/><path d="M470.087 331.236l2.435-1.439c.234.286.436.597.605.926l-2.435 1.439c-.167-.33-.37-.64-.605-.926" fill="#344755"/><path d="M470.692 332.196l2.435-1.44c.043.082.081.164.12.25l-2.435 1.439a3.988 3.988 0 0 0-.12-.25" fill="#334653"/><path d="M470.822 332.43l2.434-1.438c.03.067.058.129.082.196l-2.435 1.44a2.41 2.41 0 0 0-.081-.197" fill="#324452"/><path d="M470.894 332.627l2.434-1.439c0 .058.048.11.068.168l-2.44 1.44c0-.058-.038-.111-.062-.169" fill="#314350"/><path d="M470.956 332.795l2.44-1.439c0 .048.033.096.048.144l-2.44 1.44c0-.049-.029-.097-.048-.145" fill="#30414E"/><path d="M471.004 332.94l2.44-1.44.043.14-2.44 1.414c0-.048 0-.09-.043-.139" fill="#2F404D"/><path d="M471.047 333.078l2.44-1.415c0 .043 0 .086.033.13l-2.439 1.415a1.285 1.285 0 0 0-.034-.13" fill="#2E3E4B"/><path fill="#2D3D49" d="M471.081 333.208l2.44-1.415.028.12-2.44 1.415-.028-.12"/><path d="M471.11 333.328l2.44-1.415v.12l-2.44 1.415a.882.882 0 0 0-.024-.12" fill="#2C3C47"/><path d="M471.134 333.448l2.44-1.416v.11l-2.44 1.416a.752.752 0 0 0 0-.11" fill="#2B3A46"/><path d="M471.153 333.558l2.44-1.415v.11l-2.435 1.44v-.111" fill="#2A3944"/><path d="M471.172 333.668l2.435-1.439a.786.786 0 0 1 0 .106l-2.435 1.439a.786.786 0 0 1 0-.106" fill="#293742"/><path d="M471.182 333.774l2.434-1.44a.786.786 0 0 1 0 .106l-2.434 1.44v-.106" fill="#283641"/><path d="M471.192 333.88l2.434-1.44a.815.815 0 0 1 0 .106l-2.434 1.439v-.106" fill="#26353F"/><path d="M471.196 333.985l2.435-1.44v.101l-2.44 1.44v-.106" fill="#25333D"/><path d="M471.196 334.114l2.44-1.439v.106l-2.435 1.439v-.106" fill="#24323B"/><path d="M471.196 334.196l2.435-1.44v.102l-2.44 1.439v-.101" fill="#23303A"/><path d="M471.187 334.297l2.44-1.44v.106l-2.435 1.415a.719.719 0 0 0 0-.105" fill="#222F38"/><path fill="#212D36" d="M471.177 334.402l2.435-1.415v.106l-2.435 1.439v-.106"/><path d="M471.163 334.508l2.434-1.44v.106l-2.44 1.44v-.106" fill="#202C35"/><path fill="#1F2B33" d="M471.139 334.594l2.439-1.439-.029.11-2.44 1.44.03-.11"/><path d="M471.11 334.724l2.44-1.44c0 .044 0 .082-.04.116l-2.439 1.439c.015-.038.028-.076.039-.115" fill="#1E2931"/><path d="M471.071 334.839l2.44-1.44c0 .044-.034.087-.053.125l-2.44 1.44a.959.959 0 0 0 .053-.125" fill="#1D2830"/><path d="M471.019 334.963l2.439-1.439c-.024.051-.052.101-.082.15l-2.439 1.414c.03-.048.057-.097.082-.149" fill="#1C262E"/><path d="M470.937 335.112l2.44-1.415a1.114 1.114 0 0 1-.38.37l-2.435 1.415a1.1 1.1 0 0 0 .375-.37" fill="#1B252C"/></g><path d="M469.026 330.325a4.796 4.796 0 0 1 2.17 3.756c0 1.386-.96 1.919-2.185 1.247a4.796 4.796 0 0 1-2.175-3.76c.005-1.378.985-1.939 2.19-1.243z" fill="#1C262E"/></g><g fill-rule="nonzero"><path d="M449.694 319.301l2.439-1.415c.055-.032.113-.06.173-.082l-2.435 1.44a.846.846 0 0 0-.177.081" fill="#1B252C"/><path d="M449.88 319.244l2.435-1.44a.923.923 0 0 1 .154-.043l-2.434 1.415a.807.807 0 0 0-.154.044" fill="#1C262E"/><path fill="#1D2830" d="M450.035 319.176l2.434-1.415h.125l-2.435 1.44h-.124"/><path fill="#1E2931" d="M450.174 319.157l2.434-1.439h.116l-2.44 1.44h-.11"/><path fill="#1F2B33" d="M450.27 319.152l2.44-1.439h.1l-2.435 1.44h-.105"/><path fill="#202C35" d="M450.375 319.157l2.435-1.439h.096l-2.434 1.415h-.097"/><path fill="#212D36" d="M450.472 319.167l2.434-1.415h.096l-2.434 1.415h-.096"/><path fill="#222F38" d="M450.568 319.181l2.434-1.415h.091l-2.439 1.41h-.086"/><path fill="#23303A" d="M450.654 319.2l2.44-1.41h.09l-2.439 1.44-.091-.03"/><path fill="#24323B" d="M450.745 319.244l2.44-1.44.086.03-2.44 1.438-.086-.028"/><path fill="#25333D" d="M450.832 319.244l2.439-1.44.086.034-2.434 1.41-.091-.028"/><path fill="#26353F" d="M450.923 319.287l2.434-1.41.087.033-2.435 1.44-.086-.04"/><path fill="#283641" d="M451.01 319.325l2.434-1.439.091.043-2.44 1.44-.086-.044"/><path fill="#293742" d="M451.096 319.368l2.44-1.439.086.048-2.435 1.415-.091-.048"/><path fill="#2A3944" d="M451.187 319.416l2.435-1.415.072.038-2.44 1.44-.067-.039"/><g><path fill="#2A3944" d="M451.254 319.455l2.44-1.44-2.435 1.44"/><path fill="#2B3A46" d="M451.278 319.464l2.435-1.439.096.058-2.44 1.415-.09-.058"/><path fill="#2C3C47" d="M451.37 319.522l2.439-1.415.091.062-2.434 1.44-.097-.063"/><path fill="#2D3D49" d="M451.466 319.584l2.434-1.439.096.067-2.434 1.415-.096-.067"/><path fill="#2E3E4B" d="M451.562 319.651l2.434-1.415.1.077-2.434 1.439-.1-.077"/><path fill="#2F404D" d="M451.662 319.723l2.435-1.439.106.086-2.44 1.44-.1-.087"/><path fill="#30414E" d="M451.763 319.814l2.44-1.439.11.101-2.435 1.44-.115-.102"/><path fill="#314350" d="M451.878 319.915l2.435-1.439.125.115-2.44 1.44-.12-.116"/><path fill="#324452" d="M451.999 320.03l2.439-1.439.14.144-2.44 1.44-.14-.145"/><path d="M452.138 320.174l2.44-1.439c.062.067.12.14.177.211l-2.435 1.44a3.834 3.834 0 0 0-.182-.212" fill="#334653"/><path d="M452.32 320.385l2.435-1.439c.234.286.437.597.605.926l-2.435 1.41a5.449 5.449 0 0 0-.605-.92" fill="#344755"/><path d="M452.925 321.306l2.435-1.41c.043.081.081.163.12.25l-2.435 1.415c-.038-.087-.081-.168-.12-.255" fill="#334653"/><path d="M453.055 321.56l2.434-1.415c.03.063.058.13.082.197l-2.434 1.41c-.03-.062-.053-.13-.082-.191" fill="#324452"/><path d="M453.127 321.752l2.434-1.41c0 .053.044.11.068.168l-2.44 1.415-.062-.173" fill="#314350"/><path d="M453.19 321.925l2.439-1.415c0 .048.029.096.048.144l-2.44 1.439c0-.048-.028-.096-.048-.144" fill="#30414E"/><path d="M453.237 322.069l2.44-1.44c.015.046.028.093.038.14l-2.434 1.41-.044-.134" fill="#2F404D"/><path d="M453.28 322.203l2.435-1.41.039.125-2.44 1.439c0-.043 0-.087-.033-.13" fill="#2E3E4B"/><path d="M453.314 322.333l2.44-1.44c.01.042.018.083.024.125l-2.435 1.41-.029-.12" fill="#2D3D49"/><path d="M453.343 322.453l2.435-1.41a.958.958 0 0 1 0 .115l-2.435 1.439c0-.039 0-.077-.024-.12" fill="#2C3C47"/><path d="M453.367 322.573l2.435-1.44v.11l-2.435 1.44v-.11" fill="#2B3A46"/><path d="M453.386 322.683l2.435-1.44c.002.038.002.074 0 .111l-2.44 1.44v-.111" fill="#2A3944"/><path d="M453.4 322.793l2.44-1.439a.858.858 0 0 1 0 .11l-2.435 1.44v-.11" fill="#293742"/><path d="M453.415 322.904l2.435-1.44a.786.786 0 0 1 0 .106l-2.435 1.415v-.105" fill="#283641"/><path d="M453.425 323.01l2.434-1.416v.106l-2.434 1.439a.776.776 0 0 1 0-.106" fill="#26353F"/><path fill="#25333D" d="M453.43 323.115l2.434-1.44v.106l-2.435 1.44v-.106"/><path d="M453.43 323.22l2.434-1.439v.106l-2.44 1.439a.815.815 0 0 0 0-.106" fill="#24323B"/><path d="M453.425 323.326l2.439-1.44a.714.714 0 0 1 0 .101l-2.435 1.44a.71.71 0 0 0 0-.101" fill="#23303A"/><path d="M453.42 323.427l2.434-1.44a.786.786 0 0 1 0 .106l-2.434 1.44v-.106" fill="#222F38"/><path fill="#212D36" d="M453.41 323.532l2.435-1.439v.106l-2.435 1.41v-.1"/><path d="M453.396 323.633l2.434-1.41v.105l-2.439 1.44v-.111" fill="#202C35"/><path fill="#1F2B33" d="M453.372 323.743l2.44-1.439-.03.11-2.439 1.416.029-.11"/><path d="M453.343 323.854l2.44-1.416a1.079 1.079 0 0 0-.039.116l-2.44 1.415c.016-.038.028-.076.039-.115" fill="#1E2931"/><path d="M453.305 323.969l2.439-1.415-.053.124-2.44 1.415c0-.043.04-.081.054-.124" fill="#1D2830"/><path fill="#1C262E" d="M453.252 324.093l2.44-1.415-.082.149-2.44 1.44.082-.15"/><path d="M453.17 324.242l2.44-1.439c-.097.15-.227.277-.38.37l-2.44 1.41a1.1 1.1 0 0 0 .38-.365" fill="#1B252C"/></g><path d="M451.254 319.455a4.796 4.796 0 0 1 2.175 3.756c0 1.381-.96 1.919-2.19 1.247a4.796 4.796 0 0 1-2.17-3.761c.005-1.382.985-1.933 2.185-1.242z" fill="#1C262E"/></g><path fill="#6D8494" fill-rule="nonzero" d="M475.95 194.017l2.65-1.54-.076 27.832-2.655 1.54z"/><path fill="#92AABB" fill-rule="nonzero" d="M475.95 194.017l-.081 27.832-2.958-1.708.076-27.832z"/><path fill="#A0B2BE" fill-rule="nonzero" d="M472.987 192.309l2.656-1.54 2.958 1.708-2.65 1.54z"/><path fill="#2A3945" fill-rule="nonzero" d="M475.845 218.131l2.689-1.496.024 3.108z"/><path fill="#6D8494" fill-rule="nonzero" d="M493.607 204.402l2.65-1.54-.077 27.833-2.65 1.54z"/><path fill="#92AABB" fill-rule="nonzero" d="M493.607 204.402l-.077 27.833-2.963-1.708.082-27.833z"/><path fill="#A0B2BE" fill-rule="nonzero" d="M490.649 202.694l2.65-1.54 2.958 1.708-2.65 1.54z"/><path fill="#2A3945" fill-rule="nonzero" d="M493.5 228.522l2.69-1.502.024 3.114z"/><g fill-rule="nonzero"><path fill="#5C1500" d="M484.07 331.701l23.063-13.316-3.289 2.475-23.068 13.317z"/><path fill="#982300" d="M484.286 254.392l23.068-13.316-.22 77.309L484.07 331.7z"/><path fill="#F95300" d="M480.925 247.835l3.361 6.557-.216 77.31-3.294 2.475-37.109-21.4-2.708-6.049.216-77.31 2.737-2.93z"/><path fill="#D63C00" d="M480.925 247.835l23.063-13.317 3.366 6.558-23.068 13.316z"/><path fill="#EE4A00" d="M443.912 226.488l23.068-13.317 37.008 21.347-23.063 13.317z"/><path fill="url(#r)" d="M21.47 3.233l36.752 21.491-13.445 7.882L8.024 11.024z" transform="translate(440.57 212.75)"/><path fill="#380800" d="M488.728 251.912l.202 76.897 13.445-7.656-.178-77.142z"/><path d="M41.238 48.047v-.144a.316.316 0 0 1 0-.067v-.029a.163.163 0 0 0 0-.048v-.148-.149-.14c0-.047 0-.105-.033-.157a.25.25 0 0 0 0-.053v-.101l-.044-.158c0-.043 0-.082-.033-.12v-.024c0-.048-.029-.1-.048-.154l-.053-.153V46.349c0-.029-.024-.062-.038-.091l-.058-.149-.043-.105-.063-.144c-.028-.053-.052-.106-.076-.159v-.028c0-.043-.044-.087-.068-.125l-.086-.158-.043-.077v-.029a1.252 1.252 0 0 0-.082-.134c-.038-.063-.077-.13-.12-.192v-.029a5.567 5.567 0 0 0-.192-.273l-.135-.173a1.56 1.56 0 0 0-.11-.14l-.115-.133-.115-.13-.082-.086-.125-.125-.038-.038-.034-.03-.062-.057-.13-.115-.062-.048-.03-.029-.043-.033-.134-.1-.096-.068-.13-.086-.124-.077h-.03l-30.17-17.4-.09-.052-.125-.062-.082-.039h-.024l-.12-.052-.125-.044h-.082l-.12-.033h-.1l-.13-.024h-.432l-.173.024H6.75a.961.961 0 0 0-.168.043c-.08.03-.156.065-.23.106l-1.59.92c-.542.312-.878.96-.883 1.92L3.688 96.89a6.595 6.595 0 0 0 2.991 5.18s24.523 11.322 30.862 15.917c1.027.744 2.766 2.317 3.361 1.41l.75-70.967c-.409-.293-.414-.336-.414-.384z" fill="url(#s)" transform="translate(440.57 212.75)"/></g><g fill-rule="nonzero"><path fill="#400C00" d="M493.799 292.63l2.463-1.43 1.44.777-2.463 1.43z"/><path fill="#420C00" d="M493.851 270.304l2.464-1.434 1.45.854-2.463 1.43z"/><path fill="#000" d="M496.925 270.554l-.082 29.233-1.623-.93.01-1.944-1.465-.844.034-3.44 1.44.778.053-18.896-1.45-.83.01-3.377 1.45.85.004-1.536z"/><path fill="#2D0600" d="M496.925 270.554l2.463-1.43-.082 29.233-2.463 1.43z"/><path fill="#410C00" d="M495.306 269.618l2.464-1.43 1.618.936-2.463 1.43z"/></g><path fill="#4C0E00" fill-rule="nonzero" opacity=".45" d="M467.417 221.355l-3.918 2.168-1.316 1.435 1.182.6-1.187 1.28 2.613 1.32 2.453-.639 15.851 9.254-1.128 1.295 2.646 1.372 2.473-.643.22.106 4.188-1.09 1.315-1.438z"/><g fill-rule="nonzero"><path fill="#3B0B00" d="M464.503 226.296l2.463-1.43.005 1.67-2.464 1.43zM484.017 237.55l2.464-1.43-.005 1.68-2.464 1.429z"/><path fill="#000" d="M485.717 236.667l-.005 1.861-1.695-.978-.005 1.679-3.005-1.76-.039-1.68-16.465-9.493.004 1.67-2.943-1.699.014-1.66-1.335-.767.005-1.861z"/><path fill="#3B0B00" d="M485.717 236.667l2.463-1.43-.004 1.862-2.464 1.43z"/><path fill="#4C0E00" d="M460.248 221.979l2.463-1.43 25.47 14.689-2.464 1.43z"/></g><path fill="#4C0E00" fill-rule="nonzero" d="M485.347 245.355l3.38 6.557 13.561-7.944-3.587-6.538z"/><g fill-rule="nonzero"><path d="M446.923 239.761l-.096-.053-.12-.062-.082-.038-.12-.053-.12-.043-.081-.024-.125-.034H445.28a1.259 1.259 0 0 0-.399.149l-1.59.921c.075-.04.152-.076.231-.106l.183-.052h.033c.075-.015.15-.025.226-.03h.048c.075-.006.15-.006.226 0h.029l.25.04.263.076.288.115c.096.043.197.096.298.154l30.165 17.399 1.59-.926-30.199-17.433z" fill="#E81600"/><path d="M475.499 258.086a6.595 6.595 0 0 1 2.996 5.18l-.197 68.402c0 1.919-1.354 2.672-3.015 1.712l-30.166-17.398a6.58 6.58 0 0 1-2.991-5.181l.192-68.397c0-1.918 1.354-2.672 3.016-1.717l30.165 17.399z" fill="#D30F00"/><path d="M478.284 331.994c.002.01.002.02 0 .029 0 .096 0 .192-.039.278v.038a2.104 2.104 0 0 1-.062.25v.043a1.688 1.688 0 0 1-.086.216c-.034.077-.074.15-.12.22a.048.048 0 0 1 0 .025.916.916 0 0 1-.116.153l-.043.053-.115.11-.048.039a1.018 1.018 0 0 1-.173.12l1.59-.926a1.44 1.44 0 0 0 .177-.12l.048-.043.11-.11.049-.049.115-.153v-.029c.04-.067.077-.135.11-.206 0-.048.043-.091.058-.14a.48.48 0 0 0 0-.076.153.153 0 0 0 0-.043v-.039l.043-.153a.24.24 0 0 1 0-.058v-.091-.144-.081a.062.062 0 0 1 0-.03v-.033a1.265 1.265 0 0 0 0-.139v-.144l-1.594.926c.11.091.105.202.096.307zM477.607 260.302l.043.077.154.278v.034c.057.115.115.23.163.345.048.115.096.23.14.346v.024c.042.12.08.24.12.355.033.115.066.23.09.345v.029c0 .12.048.24.068.355 0 .12.033.24.043.355v.374l-.197 68.4 1.594-.925.192-68.401v-.134-.144a.316.316 0 0 0 0-.067v-.03-.196-.149c0-.043 0-.09-.024-.139-.024-.048 0-.105-.033-.158v-.053-.033a.273.273 0 0 0 0-.067c0-.053 0-.106-.039-.159-.038-.053-.024-.081-.033-.12 0-.048-.034-.1-.048-.153-.015-.053-.039-.101-.053-.154v-.029a.7.7 0 0 0-.034-.09l-.057-.15-.048-.105c0-.048-.044-.096-.068-.144-.024-.048-.048-.105-.076-.158v-.029a1.007 1.007 0 0 0-.063-.125l-.086-.158-.044-.077v-.028a1.252 1.252 0 0 0-.081-.135l-.12-.192v-.028a5.567 5.567 0 0 0-.192-.274l-.135-.173a1.56 1.56 0 0 0-.11-.139l-.115-.134a1.57 1.57 0 0 0-.116-.13l-.081-.086-.125-.125-.043-.038-.03-.029-.062-.057-.134-.115-.058-.048-.033-.03-.044-.033-.13-.1-.095-.068-.13-.086-.13-.077h-.028l-1.59.926c.103.058.203.122.298.192l.274.206h.029l.254.226.034.028c.081.077.168.159.25.245.086.091.172.187.254.288.086.105.168.206.245.317.072.095.139.196.206.297l.125.192c-.154-.072-.12-.024-.091.038z" fill="#710"/><path d="M33.488 18.953a6.595 6.595 0 0 1 2.996 5.18l-.196 68.402c0 1.919-1.355 2.672-3.016 1.713l-30.165-17.4a6.58 6.58 0 0 1-2.992-5.18L.307 3.272c0-1.92 1.354-2.672 3.016-1.718l30.165 17.4z" fill="url(#t)" transform="translate(442.01 239.133)"/><path d="M38.074 23.074v-.144a.316.316 0 0 0 0-.067v-.03-.196-.148c0-.044 0-.092-.024-.14-.024-.048 0-.105-.034-.158v-.053-.033a.273.273 0 0 0 0-.067c0-.053 0-.106-.038-.159-.039-.052-.024-.081-.034-.12 0-.048-.033-.1-.048-.153-.014-.053-.038-.1-.053-.154v-.028a.7.7 0 0 0-.033-.092l-.058-.148-.048-.106c0-.048-.043-.096-.067-.144-.024-.048-.048-.105-.077-.158v-.029a1.007 1.007 0 0 0-.062-.124l-.087-.159-.043-.077v-.028a1.252 1.252 0 0 0-.082-.135l-.12-.192v-.028a5.567 5.567 0 0 0-.192-.274l-.134-.172a1.56 1.56 0 0 0-.11-.14l-.116-.134a1.57 1.57 0 0 0-.115-.13l-.082-.086-.125-.124-.043-.039-.029-.029-.062-.057-.134-.115-.058-.048-.034-.03-.043-.033-.13-.1-.096-.068-.13-.086-.129-.077h-.029L5.21.863 5.114.811l-.12-.063L4.912.71l-.12-.053-.12-.043L4.591.59 4.466.556H3.568a1.259 1.259 0 0 0-.399.149l-1.59.921c.075-.04.152-.076.231-.105l.183-.053h.033c.075-.015.15-.024.226-.029H2.3c.075-.007.15-.007.226 0h.029l.25.038.263.077.288.115c.097.044.197.096.298.154L33.82 19.222c.104.057.203.122.298.192l.274.206h.029l.254.225.034.03c.081.076.168.157.25.244.086.091.172.187.254.288a6.543 6.543 0 0 1 .451.614l.125.192c.029.052.067.105.096.163l.043.076.154.279v.033c.058.115.115.23.163.346.048.115.096.23.14.345v.024c.043.12.081.24.12.355.033.115.067.23.09.345v.03c0 .119.049.239.068.354 0 .12.034.24.043.355v.374l-.197 68.401v.327c.003.009.003.019 0 .028 0 .096 0 .192-.038.279v.038a2.104 2.104 0 0 1-.062.25v.043a1.688 1.688 0 0 1-.087.215c-.033.077-.073.151-.12.221a.048.048 0 0 1 0 .024.916.916 0 0 1-.115.154l-.043.052-.116.11-.048.04a1.018 1.018 0 0 1-.172.119l1.589-.926a1.44 1.44 0 0 0 .178-.12l.048-.043.11-.11.048-.048.115-.154v-.029c.041-.066.078-.135.11-.206 0-.048.044-.09.058-.139a.48.48 0 0 0 0-.077.153.153 0 0 0 0-.043v-.038l.044-.154a.24.24 0 0 1 0-.057v-.091-.144-.082a.062.062 0 0 1 0-.029v-.033a1.265 1.265 0 0 0 0-.14v-.143l.192-68.401-.125-.312z" fill="url(#u)" transform="translate(442.01 239.133)"/></g><path fill="#4C0E00" fill-rule="nonzero" d="M472.618 275.307l-28.192-16.343-.034-1.056 28.187 16.344z"/><path d="M473.986 275.864v-.029a.134.134 0 0 0 0-.043.182.182 0 0 0 0-.048v-.043-.048-.039-.139a.115.115 0 0 0 0-.038v-.048a.173.173 0 0 0 0-.043v-.043a.172.172 0 0 1 0-.044v-.076l-.029-.053-.043-.082a.566.566 0 0 0-.053-.09l-.057-.078v-.033l-.034-.043-.033-.039-.039-.038-.038-.038a.288.288 0 0 1-.039-.039l-.043-.033-.024-.024-.043-.03-.039-.028H472.843l-.076.034-.567.33a.6.6 0 0 0-.274.528l-.35 6.49.566.989 1.273.734.571-.331.605-.38-.605-7.065zm-2.026-1.276a.14.14 0 0 1 .048 0h-.048zm.322 0h.052-.052zm.268.12l.14.096-.14-.096zm.145.1l.072.068-.072-.068zm.168.154l.076.096a.782.782 0 0 0-.081-.096h.005zm.148.177c.044.058.082.116.12.178-.038-.058-.076-.12-.12-.178zm.24.403v.039-.039zm.14.432zm0 0a1.524 1.524 0 0 1 0 .005v-.005zm.317 6.994l-.284-6.639.284 6.64z" fill="#4C0E00" fill-rule="nonzero" opacity=".31"/><g fill-rule="nonzero"><path fill="#803508" d="M472.776 282.114l.567-.33-.605.383-.567.326z"/><path d="M471.585 273.825c.518.336.851.892.903 1.506l.288 6.783-.605.38-1.272-.73-.572-.988.35-6.49c.03-.533.428-.74.908-.46z" fill="#F95300"/><path d="M473.06 275v-.072a.134.134 0 0 1 0-.043v-.043-.048-.086-.13a.173.173 0 0 1 0-.043v-.091a.173.173 0 0 0 0-.043V274.28a.48.48 0 0 0-.049-.082l-.057-.086a.437.437 0 0 0-.053-.077v-.029l-.038-.043a.13.13 0 0 0-.034-.038l-.034-.043-.038-.034-.038-.038-.044-.039-.038-.033-.039-.029h-.038l-.038-.024h-.562l-.072.034-.572.33a.653.653 0 0 1 .135-.052.543.543 0 0 1 .153 0 .745.745 0 0 1 .169.033c.063.021.124.049.182.082a1.44 1.44 0 0 1 .336.269c.048.052.101.11.144.167.045.058.085.12.12.183.04.065.075.132.106.201a1.793 1.793 0 0 1 .144.427c.006.072.006.144 0 .216l.288 6.783.567-.331-.6-7.028z" fill="#FF690F"/><path d="M3.198 1.329v-.072a.134.134 0 0 1 0-.043V1.17v-.047-.087-.129a.173.173 0 0 1 0-.044V.772a.173.173 0 0 0 0-.043V.61A.48.48 0 0 0 3.15.528L3.092.44A.437.437 0 0 0 3.04.365v-.03L3 .294a.13.13 0 0 0-.033-.039L2.934.211 2.896.177 2.857.14 2.814.101 2.775.067 2.737.038H2.7L2.66.014h-.562l-.072.034-.571.331a.653.653 0 0 1 .134-.053.543.543 0 0 1 .154 0 .745.745 0 0 1 .168.034c.064.02.125.048.183.081A1.44 1.44 0 0 1 2.43.71c.048.053.1.11.144.168.044.058.084.119.12.182.039.065.074.132.105.202a1.793 1.793 0 0 1 .144.427c.007.071.007.144 0 .215l.289 6.783.566-.33-.6-7.028z" fill="url(#v)" transform="translate(469.861 273.672)"/></g><path d="M471.542 274.67a.96.96 0 0 1 .442.753c0 .283-.202.393-.442.254a.96.96 0 0 1-.437-.758c0-.288.197-.389.437-.25z" fill="#10181E" fill-rule="nonzero"/><path fill="#17232C" fill-rule="nonzero" d="M476.642 193.086l2.463-1.43v1.67l-2.463 1.43zM494.917 203.558l2.469-1.43-.005 1.68-2.468 1.429z"/><path fill="#17232C" fill-rule="nonzero" d="M496.617 202.675l-.004 1.862-1.7-.955-.005 1.679-4.999-2.97-.043-1.678-13.23-7.522.006 1.67-4.178-2.486.014-1.66-1.334-.772.004-1.856z"/><path fill="#0D1319" fill-rule="nonzero" d="M496.617 202.675l2.464-1.43-.005 1.857-2.463 1.435z"/><path fill="#2A3945" fill-rule="nonzero" d="M471.148 187.987l2.468-1.435 25.465 14.694-2.464 1.43z"/><g fill-rule="nonzero"><path fill="#942E00" d="M528.343 311.002L507.498 298.9l2.296 1.31 20.844 12.103z"/><path fill="#F95300" d="M483.523 373.268l-20.85-12.108-.096-33.718 20.85 12.103z"/><path fill="#CF3000" d="M528.343 311.002l2.295 1.31.097 33.723-2.281 3.948-42.636 24.59-2.295-1.305-.096-33.723 2.28-3.953z"/><path fill="#FF6700" d="M483.427 339.545l-20.85-12.103 2.286-3.953 20.845 12.103z"/><path fill="#EE4A00" d="M485.708 335.592l-20.845-12.103 42.635-24.59 20.845 12.103z"/><path fill="url(#w)" d="M66.165 12.386l2.295 1.31.096 33.723-2.28 3.948-42.636 24.59-2.296-1.305-.096-33.724 2.281-3.952z" transform="translate(462.178 298.616)"/></g><path fill="#4C0E00" fill-rule="nonzero" d="M466.745 363.535l-1.546-.873.605-32.87 2.502-4.255.182-.11 42.223-24.619 1.608.936-42.837 24.973-2.07 3.531z"/><path fill="#982300" fill-rule="nonzero" d="M466.678 363.54l-.543-.015.744-33.522 2.565-3.876.052-.033 42.487-24.782.274.465-42.434 24.748-2.41 3.646z"/><path d="M528.324 311.036a19.58 19.58 0 0 1-1.748 1.074l2.665 1.377-.178 32.265-2.021 3.305-42.415 24.791c0 .106 1.215.614 1.21.72l42.67-24.628 2.15-3.939V312.38l-2.333-1.343z" fill="#4C0E00" fill-rule="nonzero" opacity=".4"/><path fill="#4C0E00" fill-rule="nonzero" d="M492.978 343.9l28.191-16.343.034-1.056-28.187 16.344z"/><g fill-rule="nonzero"><path fill="#803508" d="M492.82 350.707l-.568-.33.605.383.567.331z"/><path d="M494.01 342.418c-.518.336-.851.892-.903 1.506l-.288 6.783.605.384 1.273-.734.571-.988-.35-6.49c-.03-.533-.428-.74-.908-.46z" fill="#2D0600"/><path d="M492.536 343.598v-.072-.048a.134.134 0 0 1 0-.043.144.144 0 0 1 0-.048.149.149 0 0 1 0-.038.21.21 0 0 1 0-.048.144.144 0 0 0 0-.048V342.994l.024-.048v-.048l.048-.082.057-.086a.437.437 0 0 1 .053-.077v-.029l.039-.043a.13.13 0 0 1 .033-.038l.034-.039.038-.033.039-.039.043-.033.038-.034h.039l.038-.028H493.635l.077.033.567.331a.452.452 0 0 0-.135-.048.543.543 0 0 0-.153 0 .745.745 0 0 0-.168.034 1.014 1.014 0 0 0-.183.081 1.44 1.44 0 0 0-.336.269l-.144.168a2.297 2.297 0 0 0-.12.177c-.038.063-.072.135-.106.202a1.793 1.793 0 0 0-.144.427c-.007.07-.007.14 0 .21l-.288 6.784-.566-.331.6-7.076z" fill="#000"/></g><path d="M494.053 343.262a.96.96 0 0 0-.442.758c0 .279.202.389.442.25a.96.96 0 0 0 .442-.758c-.005-.283-.202-.389-.442-.25z" fill="#10181E" fill-rule="nonzero"/><path fill="url(#x)" fill-rule="nonzero" d="M515.369 303.557l-42.04 24.72 7.351 4.206 42.31-24.628z"/><path fill="#E81600" fill-rule="nonzero" d="M473.328 328.276l7.352 4.207-2.579 4.054-7.327-4.236z"/><path fill="#4C0E00" fill-rule="nonzero" opacity=".45" d="M493.18 330.78l-3.924-2.168-1.316-1.439 1.186-.6-1.19-1.276 2.612-1.324 2.454.643 15.85-9.258-1.128-1.295 2.65-1.367 2.469.642.216-.11 4.192 1.094 1.316 1.434z"/><g fill-rule="nonzero"><path fill="#3B0B00" d="M507.1 312.801l-2.464-1.434-.004 1.67 2.463 1.433zM487.585 324.055l-2.463-1.43.005 1.68 2.463 1.429z"/><path fill="#000" d="M485.885 323.168l.005 1.86 1.695-.973.005 1.679 3.006-1.76.043-1.68 16.46-9.493-.004 1.67 2.948-1.699-.019-1.66 1.335-.772-.005-1.861z"/><path fill="#3B0B00" d="M485.885 323.168l-2.463-1.43.005 1.861 2.463 1.43z"/><path fill="#4C0E00" d="M511.354 308.479l-2.463-1.43-25.47 14.689 2.464 1.43z"/></g><path fill="#D30F00" fill-rule="nonzero" d="M470.774 332.301l-1.076 32.778 7.265 4.433 1.138-32.975z"/><path fill="#4C0E00" fill-rule="nonzero" opacity=".45" d="M481.4 313.856l21.244-3.046 6.247-3.76 2.463 1.429 14.684.988-18.64-10.654z"/><g fill-rule="nonzero"><path d="M318.531 222.737l-.178 62.563a3.262 3.262 0 0 0-.451-.216l.178-62.563c.155.06.306.132.451.216" fill="#71787C"/><path d="M318.08 222.52l-.178 62.564a3.19 3.19 0 0 0-.38-.125l.178-62.568c.13.039.26.082.38.13" fill="#767C81"/><path d="M317.7 222.391l-.177 62.568c-.106-.034-.216-.058-.327-.082l.178-62.567.326.081" fill="#7A8185"/><path fill="#7E858A" d="M317.374 222.31l-.178 62.567-.312-.052.178-62.568.312.053"/><path d="M317.061 222.257l-.177 62.568c-.096 0-.202-.03-.303-.034l.178-62.568.302.034" fill="#838A8F"/><path d="M316.759 222.223l-.178 62.568h-.307l.178-62.563h.307" fill="#878F94"/><path fill="#8C9398" d="M316.452 222.209l-.178 62.563h-.317l.173-62.568h.322"/><path d="M316.13 222.209l-.173 62.568h-.35l.177-62.563h.346" fill="#90989D"/><path d="M315.784 222.233l-.177 62.563c-.135 0-.264.034-.394.058l.178-62.568c.13 0 .259-.039.393-.053" fill="#949CA2"/><path d="M315.39 222.286l-.177 62.568c-.2.034-.397.082-.59.143l.177-62.563c.193-.063.39-.112.59-.148" fill="#99A1A7"/><path d="M314.8 222.434l-.178 62.563c-.238.079-.468.18-.686.303l.177-62.568c.218-.123.448-.223.687-.298" fill="#9DA6AB"/></g><path fill="#A8B1B8" fill-rule="nonzero" d="M314.113 222.732l-.177 62.568-13.868 8.054.178-62.568z"/><path d="M337.076 230.786c1.224.71 1.234 1.852 0 2.557l-18.44 10.707a4.888 4.888 0 0 1-4.422 0l-18.559-10.707c-1.225-.705-1.234-1.847 0-2.557l18.44-10.707a4.878 4.878 0 0 1 4.417 0l18.564 10.707zm-18.435 10.611l13.887-8.054c1.215-.705 1.206-1.847 0-2.557l-13.963-8.05a4.878 4.878 0 0 0-4.418 0l-13.901 8.05c-1.22.71-1.21 1.852 0 2.557l13.959 8.054a4.888 4.888 0 0 0 4.422 0h.014z" fill="#FAA743" fill-rule="nonzero"/><path d="M337.993 232.168v.095a.402.402 0 0 1 0 .082c.003.03.003.06 0 .091 0 .029 0 .053-.034.077l-.043.1-.043.068-.072.11-.053.063c-.04.05-.083.096-.13.139l-.052.052-.097.077-.086.072-.11.072-.12.077-18.44 10.707a4.55 4.55 0 0 1-.437.206l-.124.043a2.614 2.614 0 0 1-.293.091c-.101.03-.207.058-.312.077-.125.03-.252.052-.38.067h-.091c-.173 0-.35.024-.528.03h-.082c-.173 0-.346 0-.518-.03h-.077a4.426 4.426 0 0 1-.504-.086l-.125-.038c-.15-.034-.293-.082-.437-.13h-.072a3.68 3.68 0 0 1-.48-.225l.85 62.323c.144.081 16.326-9.594 16.326-9.594l6.588-64.703a.139.139 0 0 0-.024.087z" fill="#F95300" fill-rule="nonzero"/><path d="M337.076 230.786c1.224.71 1.234 1.852 0 2.557l-18.44 10.707a4.888 4.888 0 0 1-4.422 0l-18.559-10.707c-1.225-.705-1.234-1.847 0-2.557l18.44-10.707a4.878 4.878 0 0 1 4.417 0l18.564 10.707zm-18.435 10.611l13.887-8.054c1.215-.705 1.206-1.847 0-2.557l-13.963-8.05a4.878 4.878 0 0 0-4.418 0l-13.901 8.05c-1.22.71-1.21 1.852 0 2.557l13.959 8.054a4.888 4.888 0 0 0 4.422 0h.014z" fill="url(#y)" fill-rule="nonzero"/><path d="M332.495 230.786c1.22.71 1.23 1.852 0 2.557l-14.487 8.409a3.508 3.508 0 0 1-3.174 0l-15.189-8.76a1.084 1.084 0 0 1 0-1.87l14.459-8.395a4.878 4.878 0 0 1 4.417 0l13.974 8.059z" fill="#4C0E00" fill-rule="nonzero"/><g fill-rule="nonzero"><path fill="#B22900" d="M319.477 189.949l-3.107 1.803-3.13-1.803 3.106-1.804z"/><path fill="#982300" d="M319.477 189.949l-.125 43.015-3.107 1.804.125-43.016z"/><path fill="#E63409" d="M316.37 191.752l-.125 43.016-3.126-1.804.12-43.015z"/></g><g fill-rule="nonzero"><path fill="#FF8815" d="M314.349 183.545l-.068 24.244-21.123-12.185.072-24.24z"/><path fill="#FF690F" d="M314.349 183.545l22.338-12.967-.067 24.245-22.339 12.966z"/><path fill="#FAA743" d="M293.23 171.365l22.333-12.971 21.124 12.184-22.338 12.967z"/></g><path d="M295.674 233.343a1.564 1.564 0 0 1-.922-1.286l5.124 64.885 15.366 9.752-1.009-62.644-18.559-10.707z" fill="#FF7110" fill-rule="nonzero"/><g fill-rule="nonzero"><path d="M541.222 372.366l2.434-1.44c.057-.031.117-.058.178-.08l-2.435 1.439a1.004 1.004 0 0 0-.177.081" fill="#1B252C"/><path d="M541.409 372.285l2.435-1.44.153-.043-2.44 1.44c-.047 0-.1 0-.148.043" fill="#1C262E"/><path d="M541.548 372.241l2.44-1.439a.99.99 0 0 1 .124 0l-2.434 1.44h-.13" fill="#1D2830"/><path fill="#1E2931" d="M541.678 372.227l2.434-1.44h.116l-2.44 1.44h-.11"/><path fill="#1F2B33" d="M541.788 372.217l2.44-1.439h.1l-2.434 1.44h-.106"/><path fill="#202C35" d="M541.89 372.222l2.434-1.439h.096l-2.435 1.44h-.096"/><path fill="#212D36" d="M541.99 372.232l2.435-1.44h.096l-2.435 1.411h-.096"/><path fill="#222F38" d="M542.086 372.246l2.435-1.41h.09l-2.438 1.439h-.087"/><path fill="#23303A" d="M542.173 372.27l2.439-1.439.086.024-2.434 1.415h-.091"/><path fill="#24323B" d="M542.264 372.294l2.434-1.415.092.029-2.44 1.439-.086-.029"/><path fill="#25333D" d="M542.37 372.323l2.439-1.44.086.034-2.44 1.44-.086-.034"/><path fill="#26353F" d="M542.437 372.356l2.439-1.439.086.034-2.439 1.439-.086-.034"/><path fill="#283641" d="M542.523 372.39l2.44-1.44.086.044-2.435 1.44-.09-.044"/><path fill="#293742" d="M542.614 372.433l2.435-1.439.091.048-2.44 1.41-.086-.043"/><path fill="#2A3944" d="M542.7 372.49l2.44-1.41.067.039-2.434 1.41-.072-.038"/><path d="M542.773 372.515a4.796 4.796 0 0 1 2.17 3.76c0 1.382-.96 1.92-2.185 1.248a4.796 4.796 0 0 1-2.175-3.761c.005-1.382.984-1.938 2.19-1.247z" fill="#1C262E"/><g><path fill="#2A3944" d="M542.773 372.515l2.434-1.41-2.439 1.415"/><path fill="#2B3A46" d="M542.792 372.53l2.44-1.416.09.058-2.439 1.439-.091-.058"/><path fill="#2C3C47" d="M542.883 372.587l2.44-1.44.09.063-2.434 1.415-.096-.062"/><path fill="#2D3D49" d="M542.98 372.65l2.434-1.416.096.067-2.435 1.44-.096-.068"/><path fill="#2E3E4B" d="M543.075 372.716l2.435-1.439.1.077-2.434 1.439-.1-.077"/><path fill="#2F404D" d="M543.176 372.793l2.435-1.44.105.087-2.439 1.44-.1-.087"/><path fill="#30414E" d="M543.277 372.88l2.44-1.44.11.096-2.435 1.44-.115-.097"/><path fill="#314350" d="M543.392 372.97l2.435-1.439.125.12-2.44 1.44-.12-.12"/><path d="M543.512 373.095l2.44-1.439.139.144-2.44 1.44a1.972 1.972 0 0 0-.139-.145" fill="#324452"/><path d="M543.652 373.24l2.439-1.44c.057.067.12.134.178.206l-2.435 1.44c-.058-.073-.12-.14-.182-.207" fill="#334653"/><path d="M543.834 373.45l2.435-1.439c.234.288.436.6.605.93l-2.435 1.411a5.387 5.387 0 0 0-.605-.926" fill="#344755"/><path d="M544.439 374.371l2.435-1.41c.043.081.081.163.12.25l-2.435 1.438a6.07 6.07 0 0 0-.12-.254" fill="#334653"/><path d="M544.56 374.625l2.434-1.439.086.197-2.44 1.415c0-.067-.052-.134-.08-.197" fill="#324452"/><path d="M544.64 374.822l2.44-1.415c0 .053.043.11.062.168l-2.439 1.439a1.735 1.735 0 0 0-.062-.168" fill="#314350"/><path fill="#30414E" d="M544.703 374.99l2.44-1.44.047.145-2.434 1.439-.053-.144"/><path fill="#2F404D" d="M544.77 375.134l2.435-1.44.043.14-2.44 1.44-.038-.14"/><path d="M544.794 375.273l2.44-1.44c0 .044 0 .087.033.13l-2.439 1.44a1.285 1.285 0 0 0-.034-.13" fill="#2E3E4B"/><path fill="#2D3D49" d="M544.828 375.403l2.44-1.44.028.12-2.44 1.44-.028-.12"/><path d="M544.857 375.523l2.44-1.44v.116l-2.44 1.439a.958.958 0 0 0 0-.115" fill="#2C3C47"/><path d="M544.88 375.638l2.44-1.44v.116l-2.44 1.41a1.069 1.069 0 0 0 0-.11" fill="#2B3A46"/><path d="M544.9 375.748l2.44-1.41v.11l-2.435 1.41a1.069 1.069 0 0 0 0-.11" fill="#2A3944"/><path d="M544.92 375.849l2.434-1.41v.105l-2.44 1.439v-.11" fill="#293742"/><path d="M544.929 375.969l2.44-1.44v.106l-2.435 1.44v-.106" fill="#283641"/><path d="M544.938 376.074l2.435-1.439a.776.776 0 0 1 0 .106l-2.435 1.439v-.106" fill="#26353F"/><path d="M544.943 376.18l2.435-1.44a.642.642 0 0 1 0 .097l-2.44 1.41v-.096" fill="#25333D"/><path d="M544.943 376.28l2.44-1.41v.106l-2.435 1.41v-.106" fill="#24323B"/><path d="M544.943 376.386l2.435-1.41v.1l-2.44 1.416v-.106" fill="#23303A"/><path d="M544.934 376.492l2.439-1.416v.106l-2.435 1.439a.786.786 0 0 0 0-.106" fill="#222F38"/><path d="M544.924 376.597l2.435-1.44a.796.796 0 0 1 0 .106l-2.435 1.44v-.106" fill="#212D36"/><path d="M544.91 376.703l2.434-1.44v.106l-2.44 1.44v-.106" fill="#202C35"/><path fill="#1F2B33" d="M544.886 376.808l2.439-1.439-.029.11-2.44 1.44.03-.11"/><path d="M544.857 376.918l2.44-1.439-.04.115-2.439 1.44c.015-.038.028-.076.039-.116" fill="#1E2931"/><path d="M544.818 377.034l2.44-1.44c0 .044-.034.087-.053.125l-2.44 1.44a.959.959 0 0 0 .053-.125" fill="#1D2830"/><path d="M544.77 377.158l2.44-1.439c-.025.051-.052.1-.082.149l-2.44 1.439c.03-.048.058-.098.082-.149" fill="#1C262E"/><path d="M544.684 377.288l2.44-1.44a1.114 1.114 0 0 1-.38.37l-2.44 1.44c.156-.09.286-.217.38-.37" fill="#1B252C"/></g></g><g fill-rule="nonzero"><path d="M529.217 365.17l2.435-1.439.177-.081-2.439 1.439c-.06.023-.117.05-.173.081" fill="#1B252C"/><path fill="#1C262E" d="M529.404 365.089l2.44-1.44.153-.038-2.439 1.44-.154.038"/><path fill="#1D2830" d="M529.544 365.05l2.439-1.439h.125l-2.44 1.44h-.124"/><path fill="#1E2931" d="M529.669 365.031l2.439-1.439h.11l-2.434 1.44h-.115"/><path fill="#1F2B33" d="M529.784 365.027l2.434-1.44h.106l-2.44 1.41h-.1"/><path fill="#202C35" d="M529.885 365.027l2.439-1.41h.096l-2.44 1.438h-.095"/><path d="M529.98 365.041l2.44-1.44h.096l-2.44 1.44a.308.308 0 0 0-.095 0" fill="#212D36"/><path fill="#222F38" d="M530.077 365.055l2.439-1.439h.086l-2.434 1.44h-.091"/><path fill="#23303A" d="M530.168 365.075l2.434-1.44.092.024-2.435 1.416h-.091"/><path fill="#24323B" d="M530.26 365.099l2.434-1.416.09.03-2.438 1.438-.087-.028"/><path fill="#25333D" d="M530.365 365.127l2.44-1.439.086.034-2.44 1.439-.086-.034"/><path fill="#26353F" d="M530.432 365.16l2.44-1.438.086.038-2.435 1.44-.091-.04"/><path fill="#283641" d="M530.523 365.2l2.435-1.44.091.043-2.44 1.41-.086-.038"/><path fill="#293742" d="M530.61 365.238l2.439-1.41.086.042-2.434 1.44-.091-.048"/><path fill="#2A3944" d="M530.7 365.295l2.435-1.439.072.038-2.439 1.44-.067-.039"/><path d="M530.768 365.324a4.796 4.796 0 0 1 2.175 3.76c0 1.382-.96 1.92-2.19 1.243a4.767 4.767 0 0 1-2.175-3.76c.005-1.382.985-1.939 2.19-1.243z" fill="#1C262E"/><g><path fill="#2A3944" d="M530.768 365.324l2.44-1.44-2.435 1.416h-.024"/><path fill="#2B3A46" d="M530.792 365.338l2.435-1.415.09.058-2.434 1.439-.09-.058"/><path fill="#2C3C47" d="M530.883 365.396l2.435-1.44.096.063-2.44 1.41-.09-.057"/><path fill="#2D3D49" d="M530.975 365.454l2.439-1.41.096.066-2.44 1.44-.095-.073"/><path fill="#2E3E4B" d="M531.07 365.525l2.44-1.439.1.077-2.439 1.44-.1-.078"/><path fill="#2F404D" d="M531.171 365.602l2.44-1.439.1.082-2.434 1.439-.106-.082"/><path fill="#30414E" d="M531.277 365.684l2.435-1.44.115.101-2.44 1.44-.11-.101"/><path fill="#314350" d="M531.388 365.775l2.439-1.44.12.116-2.435 1.439-.124-.115"/><path d="M531.512 365.9l2.435-1.44c.048.048.096.096.14.15l-2.435 1.438-.14-.148" fill="#324452"/><path d="M531.652 366.048l2.434-1.439c.063.067.125.135.183.206l-2.44 1.44a3.651 3.651 0 0 0-.177-.207" fill="#334653"/><path d="M531.83 366.255l2.439-1.44c.233.288.435.598.605.926l-2.44 1.44a5.21 5.21 0 0 0-.605-.926" fill="#344755"/><path d="M532.434 367.18l2.44-1.439c.043.087.081.168.12.255l-2.44 1.41a2.953 2.953 0 0 0-.12-.25" fill="#334653"/><path d="M532.554 367.43l2.44-1.41c.029.062.057.13.081.191l-2.434 1.416-.087-.197" fill="#324452"/><path d="M532.64 367.627l2.435-1.416c0 .058.044.116.063.173l-2.435 1.44-.062-.173" fill="#314350"/><path d="M532.703 367.8l2.435-1.44.053.144-2.44 1.44c0-.049-.033-.097-.048-.145" fill="#30414E"/><path d="M532.766 367.943l2.439-1.439c0 .043 0 .091.038.134l-2.434 1.44-.043-.135" fill="#2F404D"/><path d="M532.795 368.077l2.434-1.439c.013.043.025.086.034.13l-2.435 1.439c0-.043-.024-.086-.033-.13" fill="#2E3E4B"/><path fill="#2D3D49" d="M532.828 368.207l2.435-1.44.028.12-2.434 1.44-.029-.12"/><path d="M532.857 368.327l2.434-1.44v.12l-2.434 1.44v-.12" fill="#2C3C47"/><path d="M532.88 368.447l2.435-1.44a.887.887 0 0 1 0 .111l-2.434 1.44v-.111" fill="#2B3A46"/><path d="M532.9 368.557l2.435-1.439c.002.037.002.074 0 .11l-2.44 1.44v-.11" fill="#2A3944"/><path d="M532.915 368.653l2.439-1.439v.106l-2.435 1.439v-.106" fill="#293742"/><path d="M532.929 368.773l2.435-1.44v.111l-2.44 1.41v-.105" fill="#283641"/><path d="M532.934 368.879l2.44-1.41v.105l-2.44 1.41a.815.815 0 0 0 0-.105" fill="#26353F"/><path d="M532.939 368.984l2.439-1.41v.096l-2.435 1.439a.71.71 0 0 0 0-.1" fill="#25333D"/><path d="M532.943 369.09l2.435-1.44v.106l-2.44 1.44v-.106" fill="#24323B"/><path d="M532.939 369.195l2.439-1.439v.106l-2.435 1.415v-.106" fill="#23303A"/><path d="M532.934 369.3l2.434-1.414a.714.714 0 0 1 0 .1l-2.434 1.44a.714.714 0 0 1 0-.101" fill="#222F38"/><path d="M532.924 369.401l2.435-1.439v.106l-2.44 1.439a.685.685 0 0 0 0-.106" fill="#212D36"/><path d="M532.905 369.507l2.44-1.44v.106l-2.435 1.44a.685.685 0 0 0 0-.106" fill="#202C35"/><path d="M532.886 369.613l2.434-1.44a.503.503 0 0 1-.029.116l-2.434 1.41.029-.11" fill="#1F2B33"/><path d="M532.857 369.723l2.434-1.41a.743.743 0 0 1-.038.11l-2.434 1.439c0-.034.024-.072.038-.115" fill="#1E2931"/><path d="M532.819 369.838l2.434-1.44c0 .044-.034.087-.048.126l-2.44 1.439a.959.959 0 0 0 .054-.125" fill="#1D2830"/><path d="M532.766 369.963l2.439-1.44c-.026.052-.055.101-.086.15l-2.435 1.438c.03-.048.057-.097.082-.148" fill="#1C262E"/><path d="M532.684 370.092l2.435-1.439a1.1 1.1 0 0 1-.375.37l-2.44 1.439c.155-.091.285-.218.38-.37" fill="#1B252C"/></g></g><g fill-rule="nonzero"><path d="M565.711 359.414l2.435-1.44c.057-.031.116-.058.177-.08l-2.434 1.438a.846.846 0 0 0-.178.082" fill="#1B252C"/><path d="M565.898 359.332l2.435-1.439a.807.807 0 0 1 .154-.043l-2.435 1.44a.807.807 0 0 0-.154.042" fill="#1C262E"/><path fill="#1D2830" d="M566.043 359.29l2.434-1.44h.125l-2.435 1.44h-.124"/><path fill="#1E2931" d="M566.167 359.27l2.435-1.439h.115l-2.44 1.44h-.11"/><path fill="#1F2B33" d="M566.278 359.265l2.44-1.439h.1l-2.435 1.44h-.105"/><path fill="#202C35" d="M566.379 359.27l2.434-1.439h.096l-2.434 1.44h-.096"/><path fill="#212D36" d="M566.48 359.28l2.434-1.44h.096l-2.434 1.44h-.096"/><path fill="#222F38" d="M566.576 359.294l2.434-1.439h.091l-2.439 1.41h-.086"/><path fill="#23303A" d="M566.662 359.313l2.44-1.41.086.024-2.435 1.415-.091-.029"/><path d="M566.753 359.342l2.435-1.415.091.029-2.44 1.439a.308.308 0 0 0-.086-.029" fill="#24323B"/><path fill="#25333D" d="M566.859 359.37l2.44-1.438.086.033-2.44 1.41-.086-.028"/><path fill="#26353F" d="M566.926 359.4l2.44-1.41.086.033-2.435 1.439-.09-.038"/><path fill="#283641" d="M567.017 359.438l2.435-1.44.086.044-2.434 1.44-.087-.044"/><path fill="#293742" d="M567.104 359.481l2.434-1.439.092.043-2.435 1.44-.091-.044"/><path fill="#2A3944" d="M567.195 359.539l2.435-1.44.067.044-2.435 1.41-.067-.038"/><path d="M567.262 359.563a4.796 4.796 0 0 1 2.17 3.76c0 1.382-.96 1.92-2.184 1.248a4.796 4.796 0 0 1-2.17-3.761c0-1.382.979-1.938 2.184-1.247z" fill="#1C262E"/><g><path fill="#2A3944" d="M567.262 359.563l2.435-1.41-2.44 1.415"/><path fill="#2B3A46" d="M567.281 359.577l2.44-1.415.091.058-2.435 1.439-.096-.058"/><path fill="#2C3C47" d="M567.377 359.635l2.435-1.44.096.063-2.44 1.415-.09-.062"/><path fill="#2D3D49" d="M567.469 359.697l2.439-1.415.096.067-2.44 1.44-.095-.068"/><path fill="#2E3E4B" d="M567.565 359.764l2.44-1.439.095.077-2.434 1.439-.101-.077"/><path fill="#2F404D" d="M567.666 359.841l2.434-1.44.106.087-2.44 1.44-.1-.087"/><path fill="#30414E" d="M567.766 359.927l2.44-1.439.11.096-2.434 1.44-.116-.097"/><path fill="#314350" d="M567.882 360.018l2.434-1.439.125.12-2.44 1.44-.12-.12"/><path d="M568.002 360.143l2.439-1.439.14.144-2.44 1.44a1.972 1.972 0 0 0-.14-.145" fill="#324452"/><path d="M568.141 360.287l2.44-1.439c.062.067.12.134.177.206l-2.435 1.44c-.057-.073-.12-.14-.182-.207" fill="#334653"/><path d="M568.323 360.498l2.435-1.439c.236.288.44.6.61.93l-2.44 1.411a5.387 5.387 0 0 0-.605-.926" fill="#344755"/><path d="M568.928 361.42l2.44-1.411c.038.081.081.163.12.25l-2.44 1.438a6.07 6.07 0 0 0-.12-.254" fill="#334653"/><path d="M569.049 361.673l2.439-1.439c.029.063.053.13.081.197l-2.439 1.415c0-.067-.053-.134-.081-.197" fill="#324452"/><path d="M569.13 361.87l2.44-1.415c0 .053.043.11.062.168l-2.435 1.439c0-.058-.043-.115-.067-.168" fill="#314350"/><path d="M569.197 362.038l2.435-1.44c0 .049.034.097.048.145l-2.435 1.439c0-.048-.033-.096-.048-.144" fill="#30414E"/><path d="M569.26 362.182l2.434-1.44.044.14-2.44 1.439c0-.048 0-.091-.038-.14" fill="#2F404D"/><path d="M569.284 362.321l2.44-1.44c0 .044 0 .087.033.13l-2.435 1.44c0-.044-.024-.087-.038-.13" fill="#2E3E4B"/><path fill="#2D3D49" d="M569.322 362.45l2.435-1.439.029.12-2.435 1.44-.029-.12"/><path d="M569.351 362.57l2.435-1.439a.958.958 0 0 1 0 .115l-2.435 1.44a.958.958 0 0 1 0-.116" fill="#2C3C47"/><path d="M569.375 362.686l2.435-1.44a.958.958 0 0 1 0 .116l-2.435 1.41a.752.752 0 0 1 0-.11" fill="#2B3A46"/><path fill="#2A3944" d="M569.394 362.796l2.435-1.41v.11l-2.435 1.41v-.11"/><path d="M569.409 362.897l2.434-1.41v.105l-2.44 1.439a.858.858 0 0 0 0-.11" fill="#293742"/><path d="M569.418 363.017l2.44-1.44v.106l-2.44 1.44a.719.719 0 0 0 0-.106" fill="#283641"/><path d="M569.428 363.122l2.44-1.439a.776.776 0 0 0 0 .106l-2.44 1.439a.743.743 0 0 0 0-.106" fill="#26353F"/><path fill="#25333D" d="M569.433 363.228l2.439-1.44v.106l-2.44 1.41v-.096"/><path d="M569.433 363.328l2.439-1.41a.815.815 0 0 1 0 .106l-2.435 1.41v-.106" fill="#24323B"/><path d="M569.433 363.434l2.434-1.41a.71.71 0 0 1 0 .1l-2.434 1.415v-.105" fill="#23303A"/><path d="M569.428 363.54l2.434-1.416v.106l-2.439 1.439v-.106" fill="#222F38"/><path fill="#212D36" d="M569.413 363.645l2.44-1.44v.106l-2.44 1.44v-.106"/><path d="M569.399 363.75l2.44-1.439v.106l-2.435 1.44v-.106" fill="#202C35"/><path fill="#1F2B33" d="M569.38 363.856l2.434-1.439-.028.11-2.435 1.44.029-.11"/><path d="M569.351 363.966l2.435-1.439c-.011.04-.024.078-.039.115l-2.434 1.44c.01-.04.023-.078.038-.116" fill="#1E2931"/><path d="M569.313 364.082l2.434-1.44a.959.959 0 0 1-.053.125l-2.434 1.44c0-.04.033-.082.053-.125" fill="#1D2830"/><path d="M569.26 364.206l2.434-1.439c-.024.051-.051.1-.081.149l-2.44 1.439c.032-.048.06-.098.087-.149" fill="#1C262E"/><path d="M569.173 364.336l2.44-1.44a1.114 1.114 0 0 1-.38.37l-2.434 1.44a1.1 1.1 0 0 0 .374-.37" fill="#1B252C"/></g></g><path fill="#2A3945" fill-rule="nonzero" d="M538.22 288.298l-2.112 1.233-2.132-1.233 2.117-1.238z"/><path fill="#6D8494" fill-rule="nonzero" d="M536.108 289.53l-.02 29.373-2.127-1.238.015-29.367z"/><path fill="#92AABB" fill-rule="nonzero" d="M538.22 288.298l-.014 29.367-2.117 1.238.019-29.372z"/><path fill="#2A3945" fill-rule="nonzero" d="M549.265 282.062l-2.113 1.232-2.132-1.232 2.118-1.238z"/><path fill="#6D8494" fill-rule="nonzero" d="M547.152 283.294l-.02 29.373-2.126-1.238.014-29.367z"/><path fill="#92AABB" fill-rule="nonzero" d="M549.265 282.062l-.015 29.367-2.117 1.238.02-29.373z"/><path fill="#CF3000" fill-rule="nonzero" d="M545.908 344.102l27.078-15.72-.086 30.74-27.078 15.715zM527.55 320.433l27.079-15.72 7.015 4.049-27.073 15.72z"/><path d="M534.571 324.482c6.286 3.622 11.361 12.405 11.337 19.615l-.086 30.74-18.396-10.612.125-43.792 7.02 4.049z" fill="#7E1D00" fill-rule="nonzero"/><path d="M535.695 325.192c4.758 3.281 8.211 8.754 9.604 14.314.39 1.5.592 3.042.6 4.591l27.077-15.715a21.272 21.272 0 0 0-2.03-8.664 26.291 26.291 0 0 0-5.33-7.833 19.157 19.157 0 0 0-3.982-3.123l-27.072 15.72c.393.22.768.46 1.133.71z" fill="url(#z)" fill-rule="nonzero"/><path fill="#2A3945" fill-rule="nonzero" d="M549.265 279.346l-13.43 7.796-1.936-1.286 13.436-7.795z"/><path fill="#17232C" fill-rule="nonzero" d="M549.265 279.346v2.577l-13.43 7.795v-2.576z"/><path fill="#0D1319" fill-rule="nonzero" d="M535.834 287.142l-1.935-1.286v2.571l1.935 1.29z"/><path fill="#982300" fill-rule="nonzero" opacity=".31" d="M562.71 309.554l-.331.398-26.56 15.302-1.44-.83 27.059-15.59.312-.24z"/><path fill="#5C1500" fill-rule="nonzero" d="M535.82 369.037l-1.44-.96v-43.653l1.44.945z"/><path fill="#982300" fill-rule="nonzero" d="M553.654 313.602l-5.59 3.257-5.282 3.075-2.305-1.328 5.225-3.047 5.637-3.286z"/><g fill-rule="nonzero"><path d="M746.136 225.615l-.168 62.563a3.262 3.262 0 0 0-.451-.216l.177-62.563c.156.06.307.132.452.216" fill="#71787C"/><path d="M745.685 225.399l-.197 62.563a3.19 3.19 0 0 0-.38-.125l.178-62.568c.13.039.26.082.38.13" fill="#767C81"/><path d="M745.305 225.27l-.177 62.567c-.106-.033-.216-.057-.327-.081l.178-62.568.326.081" fill="#7A8185"/><path d="M744.979 225.188l-.178 62.568c-.1-.024-.206-.039-.307-.053l.173-62.568.312.053" fill="#7E858A"/><path d="M744.667 225.135l-.173 62.568c-.101 0-.207-.029-.307-.034l.177-62.568.303.034" fill="#838A8F"/><path d="M744.364 225.101l-.178 62.568h-.307l.178-62.563h.307" fill="#878F94"/><path fill="#8C9398" d="M744.047 225.087l-.178 62.563h-.302l.178-62.563h.316"/><path d="M743.74 225.087l-.173 62.563-.35.024.177-62.563h.35" fill="#90989D"/><path d="M743.39 225.111l-.178 62.563c-.13 0-.264.034-.394.058l.178-62.568c.13-.025.261-.043.393-.053" fill="#949CA2"/><path d="M742.996 225.164l-.178 62.568c-.2.034-.397.082-.59.144l.177-62.563c.193-.064.39-.113.59-.15" fill="#99A1A7"/><path d="M742.405 225.313l-.178 62.563c-.238.078-.468.179-.686.302l.177-62.568c.218-.123.448-.223.687-.297" fill="#9DA6AB"/></g><path fill="#A8B1B8" fill-rule="nonzero" d="M741.718 225.61l-.172 62.568-13.873 8.054.178-62.568z"/><path d="M764.695 233.664c1.225.705 1.234 1.852 0 2.557l-18.439 10.707a4.888 4.888 0 0 1-4.422 0l-18.56-10.707c-1.224-.705-1.234-1.852 0-2.557l18.44-10.707a4.878 4.878 0 0 1 4.417 0l18.564 10.707zm-18.434 10.611l13.868-8.054c1.215-.705 1.205-1.852 0-2.557l-13.964-8.05a4.878 4.878 0 0 0-4.418 0l-13.868 8.055c-1.22.705-1.21 1.852 0 2.557l13.96 8.054a4.888 4.888 0 0 0 4.422 0v-.005z" fill="#FAA743" fill-rule="nonzero"/><path d="M765.598 235.046v.096a.403.403 0 0 1 0 .081c.003.03.003.061 0 .091 0 .03 0 .053-.034.077l-.043.096-.043.072-.072.11-.053.063c-.04.05-.083.096-.13.139l-.052.053-.096.076-.087.072-.11.072-.12.077-18.44 10.707a4.064 4.064 0 0 1-.436.206l-.125.043a2.614 2.614 0 0 1-.293.092c-.101.028-.207.057-.312.076-.125.03-.252.053-.38.068h-.09c-.174 0-.351.024-.53.028h-.08c-.174 0-.346-.01-.52-.028h-.076a4.426 4.426 0 0 1-.48-.087l-.087-.024c-.149-.033-.293-.081-.437-.13l-.072-.028a3.66 3.66 0 0 1-.48-.22l.85 62.322c.144.082 16.326-9.594 16.326-9.594l6.588-64.702c-.081.033-.086.067-.086.096z" fill="#F95300" fill-rule="nonzero"/><path d="M764.695 233.664c1.225.705 1.234 1.852 0 2.557l-18.439 10.707a4.888 4.888 0 0 1-4.422 0l-18.56-10.707c-1.224-.705-1.234-1.852 0-2.557l18.44-10.707a4.878 4.878 0 0 1 4.417 0l18.564 10.707zm-18.434 10.611l13.868-8.054c1.215-.705 1.205-1.852 0-2.557l-13.964-8.05a4.878 4.878 0 0 0-4.418 0l-13.868 8.055c-1.22.705-1.21 1.852 0 2.557l13.96 8.054a4.888 4.888 0 0 0 4.422 0v-.005z" fill="url(#A)" fill-rule="nonzero"/><path d="M760.1 233.664c1.22.705 1.23 1.852 0 2.557l-14.487 8.41a3.508 3.508 0 0 1-3.174 0l-15.189-8.76a1.084 1.084 0 0 1 0-1.871l14.459-8.395a4.878 4.878 0 0 1 4.417 0l13.974 8.06z" fill="#4C0E00" fill-rule="nonzero"/><g fill-rule="nonzero"><path fill="#B22900" d="M747.082 192.827l-3.107 1.804-3.126-1.804 3.107-1.804z"/><path fill="#982300" d="M747.082 192.827l-.125 43.015-3.107 1.804.125-43.015z"/><path fill="#E63409" d="M743.975 194.63l-.125 43.016-3.126-1.804.125-43.015z"/></g><g fill-rule="nonzero"><path fill="#FF8815" d="M741.954 186.423l-.068 24.244-21.118-12.184.067-24.245z"/><path fill="#FF690F" d="M741.954 186.423l22.338-12.967-.067 24.245-22.339 12.966z"/><path fill="#FAA743" d="M720.835 174.238l22.334-12.966 21.123 12.184-22.338 12.967z"/></g><path d="M723.28 236.221a1.564 1.564 0 0 1-.923-1.286l5.129 64.88 15.366 9.758-1.014-62.645-18.559-10.707z" fill="#FF7110" fill-rule="nonzero"/></g></svg>